<?xml version="1.0" encoding="UTF-8"?><svg xmlns="http://www.w3.org/2000/svg" width="2816" height="1536" version="1.1"><path fill="#FDFEFC" d="M0 0h2816v1536H0z"/><path fill="#FCFEFC" d="m1537 81 3 2q10 6 19 14l3 2 2 3 2 2c9 10 27 29 27 44l10-7-3 2-6 1-1-4a126 126 0 0 1 52-20c43-12 86-14 127 9q14 9 27 21l2 2q21 21 28 50l3 7 1 10v5h2l2-1h3l3-1 2-1q38-7 70 14a165 165 0 0 1 32 27c17 16 31 38 32 61a100 100 0 0 1-36 77q2 5 5 9 23 28 24 64v3q1 12-3 23l-1 3q-7 21-26 36l-5 4q-18 15-41 22l-2 1a144 144 0 0 1-54 7q-21 0-41-7l-10-3-5 13q-6 22-25 35a87 87 0 0 1-63 9l-14-1a165 165 0 0 1-59-16l-38-17-1 2a102 102 0 0 1-64 54l-3 1q-16 6-34 5h-20q-28 2-55-6h-3l-25-11-2-1q-15-7-26-19l-2-2q-12-11-19-27l-12 10-13 10-10 8-20 13-2 1q-20 10-43 15l-3 1q-31 5-63-1h-2l-15-4-2-1a137 137 0 0 1-32-12 197 197 0 0 1-36-22q-28-20-45-50v-2l-2 1-10 4-3 2-12 6-18 5h-3c-28 7-57 7-82-8a93 93 0 0 1-37-38l-1-2q-8-17-6-35v-4a95 95 0 0 1 36-73l-1-1q-13-8-24-18l-5-4a69 69 0 0 1-24-45c-1-23 14-43 30-60q10-12 25-20l3-2q16-6 33-10l2-1q24-4 46 0v-3a77 77 0 0 1 22-60c12-14 27-28 47-31h10c25-1 55 0 76 15l3-12 3-3 8-9c14-20 34-36 58-40l14-1 15-3 23-1h2q48-1 83 34l1-1c19-27 46-40 76-50l4-1 10-3 3-1c31-7 70-9 99 7"/><path fill="#0A0A0A" d="m408 911 3 3q1 10-5 16l45-10h3q4 0 7 2 3 4 3 9-2 6-7 11-2 3-2 7l28 1 8 2 4 7 1 1q1 5-3 9l-10 8q-6 3-9 9v8q7 5 16 7 6 2 10 6v6q-5 6-12 5h-17l1 3 1 3 1 3a93 93 0 0 1-37 98l6 14 5 13 3-1a1186 1186 0 0 1 91-42l3-1a307 307 0 0 0 60-33l3 1 1 5-6 4 2-1 8-1 1 4v3l-12 6-2 1-31 12q-22 9-42 20l-22 11-24 13-3 2-9 4-2 1-7 1v-5l4-4-3 1-3 2-7 3 2 3q25 58 25 121v3l-1 31-7-1v-2q-4-41-13-80l-1-3-7-29-1-3-2-7v-2l-8-24-9-35-10 5v3q0 5-4 8l-2 3-2 1-7 9-1 2-23 27-15 19-2 3-28 36-14 18-2 2-6 8-3 2-1 2q-6 12-6 25v3l-1 8h-5c-3-3-1-12-1-16q0-20 4-41l1-4 13-65-1 2-45 69-2 2-12 19-2 2-2 2-1 2-3 4q-4-1-8-3 1-6 5-11l17-24 2-3 51-75 1-2 4-6 2-3 3-8 1-3 1-4 2-7 1-4 2-3h6l3 1q1 7-2 12l-9 33-4 16-1 7 19-23 28-33 2-2 7-2q-3 13-12 23l-29 36-11 14 3-2 16-17 11-12 9-9 31-34h-2c-30 1-63-5-86-26-10-10-21-27-21-42l-12 11q-5 6-12 7l-8-3q-4-9-2-19l8-17 3-11-3 1-7 1q-5 2-9-1-5-3-4-5c-1-12 6-23 13-32l2-2 3-3 17-18-4-1h-4l-2-1q-7 0-13-5l-1-5c9-12 27-20 42-22q19-3 38 2v-2l-4-2 1-5q6-2 12 0 7 2 13 0l8-7c9-9 31-29 45-24"/><path fill="#1C4F93" d="m1537 81 3 2q10 6 19 14l3 2 2 3 2 2c9 10 27 29 27 44l10-7-3 2-6 1-1-4a126 126 0 0 1 52-20c43-12 86-14 127 9q14 9 27 21l2 2q21 21 28 50l3 7 1 10v5h2l2-1h3l3-1 2-1q38-7 70 14a165 165 0 0 1 32 27c17 16 31 38 32 61a100 100 0 0 1-36 77q2 5 5 9 23 28 24 64v3q1 12-3 23l-1 3q-7 21-26 36l-5 4q-18 15-41 22l-2 1a144 144 0 0 1-54 7q-21 0-41-7l-10-3-5 13q-6 22-25 35a87 87 0 0 1-63 9l-14-1a165 165 0 0 1-59-16l-38-17-1 2a102 102 0 0 1-64 54l-3 1q-16 6-34 5h-20q-28 2-55-6h-3l-25-11-2-1q-15-7-26-19l-2-2q-12-11-19-27l-12 10-13 10-10 8-20 13-2 1q-20 10-43 15l-3 1q-31 5-63-1h-2l-15-4-2-1a137 137 0 0 1-32-12 197 197 0 0 1-36-22q-28-20-45-50v-2l-2 1-10 4-3 2-12 6-18 5h-3c-28 7-57 7-82-8a93 93 0 0 1-37-38l-1-2q-8-17-6-35v-4a95 95 0 0 1 36-73l-1-1q-13-8-24-18l-5-4a69 69 0 0 1-24-45c-1-23 14-43 30-60q10-12 25-20l3-2q16-6 33-10l2-1q24-4 46 0v-3a77 77 0 0 1 22-60c12-14 27-28 47-31h10c25-1 55 0 76 15l3-12 3-3 8-9c14-20 34-36 58-40l14-1 15-3 23-1h2q48-1 83 34l1-1c19-27 46-40 76-50l4-1 10-3 3-1c31-7 70-9 99 7m-116 6-3 1c-26 8-49 30-65 52l-1 10h-7l-2 4h-2q-2-3-2-7 1-5-3-9-17-15-40-22l-2-1c-26-8-52-14-78-4l-2 1a191 191 0 0 0-49 27c-11 8-21 24-23 37h-2l-2 1-1 2-4 1v-3q1-4-3-7c-8-5-21-4-31-5l-4-1h16c-10-6-28-4-39-2l-16 4-4 1q-32 11-51 41l-6 18-1 3q-2 12-2 24h-2v9l-5 1-2-7v-4l-10-2-1 3h-19a89 89 0 0 0-42 8 170 170 0 0 0-33 20 68 68 0 0 0-21 43 74 74 0 0 0 19 54l2 2c6 6 16 16 24 17l2 1 1 3h3l1 4 6 1v4h-2q-9 4-16 10l-2 1a75 75 0 0 0-28 47 77 77 0 0 0 2 28q6 28 30 45a105 105 0 0 0 39 16c32 5 66-4 94-19q5-3 11-4v3l5 11 1 2q9 15 21 28l2 2 15 14 2 2q9 7 20 11l3 2 33 10h3q21 4 42 4h3q33 0 65-7l2-1 14-4q34-12 53-43v-2h3l1 2 4-2 1 2q6 13 17 22l2 2a154 154 0 0 0 45 30 158 158 0 0 0 41 15 133 133 0 0 0 105-25l2-1a105 105 0 0 0 39-45h5l4 4a138 138 0 0 0 65 35q45 11 85-10 8-5 15-11l2-2q13-11 18-28l1-4 1-2h8l5 3q25 9 51 8h26a79 79 0 0 0 27-7q34-10 49-42 5-10 6-22h2l3-15 2-7-3-1v-2c2-20-10-39-22-55l-4-5-2-3 6-8q13-14 19-33l1-2c7-20 5-48-3-66a94 94 0 0 0-55-50 154 154 0 0 0-72-6h-5l-1-12q1-29-19-51-6-7-14-12l-3-2a170 170 0 0 0-102-35q-46 0-83 29l-2 2-3 3-4 3-8 1 1-2q1-14-8-27l-2-4q-4-10-14-15l-2-1q-25-16-53-23l-3-1c-26-6-55-9-81-1m542 367-1 18q1 17-5 33l-2 7c7-6 10-19 11-28v-13l-2-17z"/><path fill="#B7C3D2" d="m2355 1143 5 2q1 5-2 9l-7 8-1 3a199 199 0 0 0-38 96l-3 7q0 10 5 20c9 15 11 34 15 51l1 5 2 21-3-1v38l-2 1-1 3 5 1 1 3c-9 4-9 4-13 4l-14 4c-48 15-110 14-157-7v-2l-1-15q-5-35 4-70l-3 1q-71 21-141-1l-4-1-2-1-3-1-3-3v-2q6-2 11 1l17 5h2l6 2-3-1q-13-4-27-11v2l-5-1-1-14-3 6h-2a136 136 0 0 1 3-33l7-35q7-42 33-74l1-2 5-5 2-1 4-4 7 1 1 4-4 6q-15 20-25 43l-1 2c-12 24-12 24-15 49a473 473 0 0 0 38-52l17-21 5-6 19-21h4q-1 7-6 13l-1 2-27 40-2 2-1 1-3 6 1-1 2-2 1-2 42-51 7-8h2l2 7-6 9-10 12-2 3-25 35-2 2-9 12-2 3-4 5-1 2-2 2-3 6 5-7 2-2 21-25q15-19 28-39l6-9 1-2 9-11h2v9l-2 3-2 3-9 13-17 26-23 39 1-1a723 723 0 0 0 51-64l1-2 10-11 1-3-7-9-2-6 1-2h7q17 16 27 36l1 2q9 16 13 34l1 3 1 9 7 24 2 6 2-3q7-11 16-21l2-2 3-3 4 1h2l4 1q0 5-4 8l-3 3c-9 7-20 18-23 29q-2 7-6 14-8 13-11 29l-1 3q-7 34-6 70l4 1 18 5q35 13 72 14h2q16 1 31-3l3-1q14-3 27-10l6-2-1-45v-3a160 160 0 0 0-5-36q-7-35-31-59-5-6-9-13l1-4q9 0 14 8l2 2 2 2 11 13 1-13 3-20 3-15q5-45 42-74z"/><path fill="#B7C3D2" d="M2425 1143c18 6 33 36 41 52q7 16 11 34l1 3 6 39 1 2c3 26 3 26-1 35-11 14-33 18-50 20q-19 3-38 2h-11l-21 1-1-3h-4l-8-3v-2h-3q-12-1-22-9l1-4h3q7 0 9-6l3-3 7-8 19-23 22-27 31-40 18-18a296 296 0 0 0-52 56l-24 28-18 24-2 2-3 5c-4 5-4 5-8 6l-5-2q1-4 3-7l2-2 2-2 28-36 28-33 8-10 15-17 7-10 5-6-2 1-11 6-17 18-6 7-3 2-19 23-9 11q-11 14-21 29l-2 2-3 5-2 2-1 1-3 4-5-1q0-6 3-10l2-3 10-15-2 2-8 7-5-1 5-10 2-2 3-3 35-42 18-21 23-29q8-8 10-20z"/><path fill="#FCFDFC" d="M400 976c8 2 13 10 18 16q13 18 34 22c6 2 6 2 8 5l1 3 1 3 1 14v3q0 12-3 22l-1 3q-7 21-22 38l-1 1a77 77 0 0 1-55 27q-31 2-55-19c-14-12-30-29-31-47q2-10 9-15 5-4 10-6l8-9 1-2 16-31 1-3 5-16q3 0 5 2 5 2 11 0l3-2h8q14 0 26-7z"/><path fill="#215393" d="M1478 71h13v1h-10l-3 1-15 1v2l8 1q35 3 66 17l3 1 14 8 5 3c7 4 15 14 19 22l-1 3-7-9q-8-8-20-14l-3-2q-26-14-55-19h-3q-34-7-68 1l-3 1c-26 8-48 29-64 51l-1 10-2 2-5-1-3 4q-3 0-5-4v-4l-1-7-15-11-2-2-24-10-2-1c-26-8-52-14-78-4l-2 1c-21 8-47 19-59 38l-1 2q-7 11-12 24h-4l-1 3h-4v-3q0-4-4-6-4-3-10-3l-4-1h-10l-6-1h-3l-2-3h14q-26-4-52 4l-4 1q-32 10-50 40-9 22-10 45h-2v2l1 2v5l-2 2-5-1q-2-5-2-11l-9-2-1 4h-19a89 89 0 0 0-42 8q-16 8-30 18l-2 2c-12 8-18 26-21 39a73 73 0 0 0 19 57l2 2q10 11 23 17l3 3 3 1 1 3 6 2v4l-2 1q-11 6-21 14l-2 1c-13 10-18 27-22 42a77 77 0 0 0 2 28 67 67 0 0 0 15 31 88 88 0 0 0 53 29c32 5 66-4 94-20q5-2 11-2l1 2q10 25 28 43l2 2 13 12 2 2q8 7 20 11l3 2 32 10-2 5-3 1q54 18 110 2l12-3 5-2h9c-7 8-20 11-30 13l-3 1q-38 11-77 3h-2l-15-4-2-1a137 137 0 0 1-32-12 197 197 0 0 1-36-22q-28-20-45-50v-2l-2 1-10 4-3 2-12 6-18 5h-3c-28 7-57 7-82-8a93 93 0 0 1-37-38l-1-2q-8-17-6-35v-4a95 95 0 0 1 36-73l-1-1q-13-8-24-18l-5-4a69 69 0 0 1-24-45c-1-23 14-43 30-60q10-12 25-20l3-2q16-6 33-10l2-1q24-4 46 0v-3a77 77 0 0 1 22-60c12-14 27-28 47-31h10c25-1 55 0 76 15l3-12 3-3 8-9c14-20 34-36 58-40l14-1 15-3 23-1h2q48-1 83 34l1-1a157 157 0 0 1 133-58"/><path fill="#F9FBFC" d="m2277 1254 2 1 4 2c15 9 25 33 30 49l4 18 1 2q3 27 2 54v21l-13 6-3 2-3 1-12 4-2 1h-3l-3 1q-14 3-29 2h-2q-17 0-34-3h-2l-48-15 2-3 30-41 27-35 10-12 18-24 6-7z"/><path fill="#0A0A0A" d="m2355 1143 5 2q1 5-2 9l-7 8-1 3a199 199 0 0 0-38 96l-3 7q0 10 5 20c9 15 11 34 15 51l1 5 2 21-3-1v38l-2 1-1 3 5 1 1 3c-9 4-9 4-13 4l-14 4c-48 15-110 14-157-7v-2l-1-15q-5-35 4-70l-3 1q-71 21-141-1l-4-1-2-1-3-1-3-3v-2q6-2 11 1l17 5h2l6 2-3-1q-13-4-27-11v2l-5-1-1-14-3 6h-2a136 136 0 0 1 3-33l7-35q7-42 33-74l1-2 5-5 2-1 4-4 7 1 1 4-4 6q-15 20-25 43l-1 2c-16 33-19 63-19 99a168 168 0 0 0 111 16l27-5 5-1 6-2 2-6 6-15 2-2 4-7q4-3 4-8l-9-29c-8-30-8-30-22-58l-1-2q-7-12-17-22-4-4-4-10l4-1c8 0 14 11 19 17q7 9 12 19l1 2q9 16 13 34l1 3 1 9 7 24 2 6 2-3q7-11 16-21l2-2 3-3 4 1h2l4 1q0 5-4 8l-3 3c-9 7-20 18-23 29q-2 7-6 14-8 13-11 29l-1 3q-7 34-6 70l4 1 18 5q35 13 72 14h2q16 1 31-3l3-1q14-3 27-10l6-2-1-45v-3a160 160 0 0 0-5-36q-7-35-31-59-5-6-9-13l1-4q9 0 14 8l2 2 2 2 11 13 1-13 3-20 3-15q5-45 42-74z"/><path fill="#2A5793" d="m1437 673 4 1 4 6 2 4 1 2 5 9 1 2 7 10 12 22 7 15v7h-5l-3-4-2-3-1-3-26-38 4 26 4 29c6 42 22 85 55 113 19 14 45 26 69 27h4c31 2 63-9 92-18l28-7 4-1c25-4 55-2 76 13 20 16 26 40 30 64v2q3 14 2 28 1 24 5 46l1 3c6 28 18 44 42 59a587 587 0 0 0 107 54l-1 5q-10 1-21-3l-4-2a254 254 0 0 1-78-35q-27-19-44-47l-1-3c-13-22-13-22-15-34l-1-2v-34c0-33-5-61-28-86-18-16-40-19-63-18q-19 1-36 6l-3 1-25 8-32 10-2 1a116 116 0 0 1-105-24l-2-2c-42-37-56-83-67-137v-3q-4-16-6-34l-6 28-2 8v2c-2 6-2 6-5 8l-5-1 6-33 11-45h3l1 2z"/><path fill="#BDCAD9" d="m1069 498 2 1-5 11-8 12-2 3 2-2 7-6 1-2 4-1 2 1v8l-2 4-1 2-3 4 1-2c5-5 5-5 9-5l4 1q-1 10-6 19l2-2 3-2 3-3q3-2 8-2v8l-1 2-1 2-1 3-3 5q5-1 8-6l4-1 3 2q0 10-5 19l2-2 2-2 2-2q3-3 7-3l2 2q0 9-4 16l1-2c5-5 5-5 9-5h2q2 8-1 16l2-2 3-2 2-2q4-3 9-3l1 1q0 8-5 15l2-2 2-3 2-3q5-5 6-4l5 1 1 4-4 8-1 3-1 2 2-2c13-15 13-15 19-17h2l2 2q-1 9-5 17l-1 3-3 6 1-1 12-12 7-7 4 1q2 4-1 7l-2 4-1 2-3 5 2-3 10-12 2-2 7-5h2l1 3q0 5-4 9l-7 14 23-25q4-5 9-5v7l-2 3-1 2-2 3-2 2-4 7 10-10c13-15 13-15 18-18h4v6l-1 2-2 3-1 2-3 5-2 3-5 10 13-15 16-17 6-7 9-10 4 3q0 4-5 8l-22 23-17 19-1 2-4 3 2 2a364 364 0 0 1-85-4l-3-1-32-11q-14-5-24-17l-5-5q-18-15-29-37l-1-2q-4-5-4-11-10 2-18 7-32 16-69 16h-2q-12 1-24-2l8-6q6-3 10-9l2-1 12-15 8-8 4 1 1 4-4 8-2 2-12 16 12-11q9-11 20-19l5 1q1 5-2 8l-3 4-2 2-3 3-6 8 11-9 1-2c23-25 23-25 28-25h2q0 8-7 15l-1 2 3-1 19-20 2-2q2-2 5-2l2 1q-1 7-7 13l-1 2-8 9q-3 4-3 9l-1 5 18-17 22-20q3-4 6-3"/><path fill="#164C92" d="m1405 290 3 1h3l22 3c18 2 40 5 52 20q7 8 5 19-3 14-13 24l2 1q11 5 16 16 3 12-1 22c-6 11-19 16-31 19q-25 6-50 2l-3-1q-9 0-16-5-2-5-2-11 1-4 5-6h10l4 4 5 1v-3q-4-43-3-88h-8l-6-2q-3-5-3-10 2-7 9-6"/><path fill="#265593" d="M1031 614v7h3q0 10-5 17l-29 68-6-3q1-7 4-14l3-11q6-20 16-37h-2v2l-6 5q-8 5-14 12l-6 6-8 7-8 7q-15 14-27 30l-2 3q-9 11-13 23l-1 2q-7 18-10 37c-19 97-19 97-54 121q-21 13-43 10h-2q-28-1-57-7c-23-5-50-4-71 9l-6 5-2 2q-9 8-15 18l-27 35-3 5q-20 26-30 57l-1 3v3l-3 4q-4 0-6-3 0-17 8-32l1-3c16-40 42-79 79-102l2-1q11-8 23-12l3-1q8-2 16-1h4q21 0 40 5 33 7 65-3l3-1q27-10 42-35l2-3c13-22 17-45 22-69q2-15 6-29l1-2a185 185 0 0 1 61-90l19-16 6-5 5-4-44 19-3 2-7 1v-9l3-1 46-20 3-2 15-8q4-2 10-1"/><path fill="#235494" d="m1537 81 3 2a84 84 0 0 1 22 16l2 3 2 2c9 10 27 29 27 44l10-7-3 2-6 1-1-4a126 126 0 0 1 52-20c43-12 86-14 127 9q14 9 27 21l2 2q21 21 28 50l3 7 1 10v5h2l2-1h3l3-1 2-1q38-7 70 14a165 165 0 0 1 32 27c16 15 31 37 32 59q1 15-3 28h-1l-1-7q-3 4-3 9h-3l-1 4c-3 13-13 27-22 37l-3 1 4-7-4 3-2 2-5 5-2-1 1-1q15-15 21-35l1-2c7-20 5-48-3-66a92 92 0 0 0-54-49 154 154 0 0 0-72-6h-5q-2-3-2-8v-6a70 70 0 0 0-32-61l-3-2a170 170 0 0 0-102-35q-46 0-83 29l-3 2-1 3-5 3h-9l1-2q0-13-7-25l-2-5 3 1q-4-9-11-16l-2-2-2-2-1-2-9-6-2-1q-37-20-78-23l-14-2 2-1 3-2 7-1h-15v-1c27-4 58-3 82 10"/><path fill="#BECBDB" d="m1795 517 1 5q0 3-4 5l-1 2-11 14-15 17-4 6-20 28-2 3 2 1q-51 21-102 0-25-10-45-30-2-2-5-2h-2l-1 2-4 7-1 2q-7 10-15 18l-2 2q-27 28-64 37l5-12 1-1a302 302 0 0 1 34-43l14-14 19-21 4-3 1-1 6 1 1 5-3 5-2 3-2 1-7 11-6 8 2-1 2-2 22-18q8-5 12-14l5 1v6l4 2q0 8-4 15l2-2 2-3 3-3q2-4 7-4l3 3-2 10 7-8 6 2q1 9-2 17l2-2 2-1 2-2q3-2 7-2l2 2v5l-1 3v4l1-1 2-2 1-2q3-4 8-4 3 0 5 2-1 7-5 14l1-2c8-10 8-10 13-13q4 0 6 2 0 8-6 15l2-2 17-18 6 1q2 5-1 10l-1 3-1 2 2-2 2-3 3-3 5-4 5 1v8l-1 2-2 3-1 2 2-2q13-16 29-27l16-14 5-5 16-15c11-11 11-11 18-10"/><path fill="#999A9C" d="M404 918q-2 6-6 11-2 3-2 7c8 4 18-1 26-3 21-6 21-6 28-6h3l4 2q0 6-5 8l-2 2-4 3c-1 6-1 6 2 11q6 5 14 5h16l3 1 6 2q0 4-3 7l-3 2-2 2-6 4q-4 5-7 12l2 11 4 2 2 1 13 5 2 1 1 3c-20 2-20 2-26-2l-3-7-8-9-1-2-4-4-2-2-16-13-2-2a86 86 0 0 0-63-11q-18 5-35 14l-3 1a77 77 0 0 0-35 57l-3 10-1 9q0 14-9 23l-3 2-5 5c-4 4-4 4-8 4l-3-1q0-11 5-21l2-6 7-13 1-7c-9-1-9-1-18 1h-8q0-7 3-12l1-3q8-13 18-24l3-2 14-14q6-4 8-10h3l-1-2q-5 0-8 3-5 3-12 2h-2l-12-1q5-8 14-13l3-2 4-1 8-2 14-1h3q7 0 16 2 7 1 14-2l-3-8 5 1 3 1 9 3 2-2 19-16 17-12 2-1q4-3 10-3"/><path fill="#B6C2D2" d="M2425 1143c18 6 33 36 41 52q7 16 11 34l1 3 6 39 1 2c3 26 3 26-1 35-11 14-33 18-50 20q-19 3-38 2h-11l-21 1-1-3h-4l-8-3v-2h-3q-12-1-22-9l1-4 18 4a142 142 0 0 0 51 6c17 0 17 0 33-3l2-1 6-2 2-1 30-12 8-2q-3-34-14-66l-1-3q-8-24-20-46-6 3-11 8l-3 3-2 2-5 4q-13 12-24 27l-10 13-24 28-18 24-2 2-3 5c-4 5-4 5-8 6l-5-2q1-4 3-7l2-2 2-2 28-36 28-33 8-10 15-17 7-10 5-6-2 1-11 6-17 18-6 7-3 2-19 23-9 11q-11 14-21 29l-2 2-3 5-2 2-1 1-3 4-5-1q0-6 3-10l2-3 10-15-2 2-8 7-5-1 5-10 2-2 3-3 35-42 18-21 23-29q8-8 10-20z"/><path fill="#1E5093" d="m867 295-4 12q-10 26 1 50 4 12 13 21l2 2q10 11 23 17l3 3 3 1 1 3 6 2v4l-2 1q-11 6-21 14l-2 1c-13 10-18 27-22 42a77 77 0 0 0 2 28 67 67 0 0 0 15 31 88 88 0 0 0 53 29c32 5 66-4 94-20q5-2 11-2l1 2q10 25 28 43l2 2 13 12 2 2q8 7 20 11l3 2 32 10-2 5-3 1q54 18 110 2l12-3 5-2h9c-7 8-20 11-30 13l-3 1q-38 11-77 3h-2l-45-15-4-2a197 197 0 0 1-36-22q-28-20-45-50v-2l-2 1-10 4-3 2-12 6-18 5h-3c-28 7-57 7-82-8a93 93 0 0 1-37-38l-1-2q-8-17-6-35v-4a95 95 0 0 1 36-73l-1-1q-13-8-24-18l-5-4a69 69 0 0 1-24-45q-1-12 5-22l1-1v3l4 1v2q-4 19 3 36l3 4-1-3-1-5-1-2q-6-17-1-35v-5q0-5 4-9 2-3 6-5z"/><path fill="#BFCBDB" d="m1931 401 10 12 1 2 4 5 2 2c8 12 12 29 11 43l3 1-1 3-1 7-1 5v2l-2 5h-2v3q-6 30-28 49-9 6-19 9l-3 1-10 4-3 1q-12 4-23 4h-2c-41 1-41 1-58-4l-2-1q-10-3-21-8l6-7 1-2 5-5 1-2q4-4 9-5h3l1 7-1 3v2l1-2c6-7 6-7 10-9l8 1-1 8 2-2q6-8 15-10h5v7l-2 4-2 3-1 3 2-2c7-10 7-10 12-13q5-1 8 3v9l-4 7-2 3-1 3 2-3c14-19 14-19 24-23l5 1-4 9-2 2-2 3-1 2-5 7h1l4-4 14-14q4-2 6-8l-6 2v-2l7-4q19-16 29-40l-2 3-4-1q-2-4 1-7l1-3 1-3 1-2 3-7-5-2 1-4v-3l2-4-4-1q-1-7 2-12l1-2 2-6 1-3 1-2-2 2-1 1-4 4-2 3-3 2q-3 3-7 3l-1-1q1-8 6-15l2-6 4-5zm32 53c5 5 3 15 3 22q0 19-10 36v-4l1-3 1-3 1-3q5-15 3-31z"/><path fill="#B5C1D0" d="M332 1134h4l3 1q1 7-2 12l-9 33-3 12-1 4-1 7 19-23 28-33 2-2 7-2q-3 13-12 23l-29 36-11 14 3-2 16-17 11-12 9-9 31-34-1-2h2l20-5 1 6q0 3-4 5l-2 3-2 1-7 9-1 2-23 27-15 19-2 3-28 36-14 18-2 2-6 8-3 2-1 2q-6 12-6 25v3l-1 8h-5c-3-3-1-12-1-16q0-20 4-41l1-4 13-65-1 2-45 69-2 2-12 19-2 2-2 2-1 2-3 4q-4-1-8-3 1-6 5-11l17-24 2-3 51-75 1-2 4-6 2-3 3-8 1-3 1-4 2-7 1-4q1-4 4-3"/><path fill="#BECBDB" d="M1348 528h3v9l-1 2 3 1q1 10-3 19l-1 4 2-2 2-3 2-3q2-3 7-3l2 4q-1 9-5 16l10-11 4 2v7l-2 9 2-2 2-3 3-2 4-2 4 3-1 5-1 8 8-9 5 2q1 9-3 18l2-2 2-2 3-3 5-4q4 0 7 3 0 6-4 10l-1 3-1 2 2-2c5-6 5-6 10-7h2v8l-1 2-2 3-1 2 9-11 4 1q4 5 1 10l-1 3 2-2 2-3 2-3q4-3 9-3l2 2q0 7-4 14l2-2c11-14 11-14 16-14l3 1q0 9-5 14c-3 4-3 4-4 9l16-17 3-4 2-2 4-4 4 1v9l-1 2-1 2 2-2 18-18 2-2 4-4 4 1q-1 9-6 14l-9 16 27-31 11-14 5-6 4 2q0 7-7 11l-14 15-11 13-1 2-18 21-2 2-1 4a134 134 0 0 1-65-4q-11-3-22-10l-8-4c-22-11-51-28-60-53l-5 2v-2h-3l-1 2q-1 5-6 9l-1 2q-15 18-36 29 2-5 5-9l11-13 31-38 2-2z"/><path fill="#B6C2D1" d="M2087 1156h4q-1 7-6 13l-1 2-27 40-2 2-1 1-3 6 1-1 2-2 43-53 7-8h2l2 7-6 9-10 12-2 3-25 35-2 2-9 12-2 3-4 5-1 2-2 2-3 6 5-7 2-2 21-25q15-19 28-39l6-9 1-2 9-11h2v9l-2 3-2 3-9 13-17 26-23 39 1-1a723 723 0 0 0 51-64l1-2 13-14 3 5-1 2q-12 12-22 27l-21 27-2 2-37 43-23 28-1 2-6 7-16-8q-1-27 3-55h1l1 5a473 473 0 0 0 38-52l17-21 5-6z"/><path fill="#B7C3D3" d="m435 1154 4 8 1 3 1 3v3l4 15 1 2-1 4-4 3-6 7-2 3-2 1-32 40-20 26c-27 34-27 34-35 41h-4l4-8 1-2 2-2 4-5 1-3 19-25 12-15 2-3-6 4-1 2-25 31-14 18-4 5-4 5-7-1q3-7 9-13l57-73-48 55-12 13-12 14-7 4v-7l1-2 2-3 2-3 2-2a838 838 0 0 1 61-80l28-34 2-2 5-6 1-2q8-10 18-16h2z"/><path fill="#0D0D0D" d="M2225 1092h3l27 2c27 4 27 4 34 13q27 38 22 83l-5 12-1 3q-12 20-35 29l-2 1q-15 6-32 5h-3q-32 0-53-23a75 75 0 0 1-17-53q5-28 24-50l2-3c10-11 21-20 36-19m-30 27-2 2a72 72 0 0 0-22 50q1 20 16 35 27 22 60 21h4q15 0 25-10 24-26 25-59-2-26-22-44l-10-5-2-1q-8-3-18-3h-5c-19-1-35 0-49 14M2088 1000q26-2 48 13l7 9 6 6c10 11 17 28 17 43 1 23-11 46-27 62l-12 9-3 2q-18 11-38 10h-3q-16 0-30-7l-2-1-15-10-2-2q-20-20-20-50v-14q-1-24 15-42l18-13 5-5c11-8 19-10 32-10zm6 10 1 4h-16q-17-1-30 10a93 93 0 0 0-25 49v2c-2 19 11 39 22 53q16 18 39 17 26 3 45-14l2-2 2-2c15-15 19-39 18-59 0-14-4-30-14-40-11-8-29-19-44-18"/><path fill="#205193" d="m1327 566 2 1 6-1 1 2a149 149 0 0 0 66 54 154 154 0 0 0 39 14c28 6 60 1 85-13l4-1 1 2 2-1q4 0 7 2l-2 1q-6 3-7 8-6 8-16 9-22 6-44 4h-12q-25 2-51-6h-3l-25-11-2-1q-15-7-26-19l-2-2q-12-11-19-27l-12 10-13 10-10 8-13 9-1 1q-6 4-12 2l-12 3-5 2h-3c-37 11-76 13-113-2v-1h5l1-4q6-1 12 0l4 1 2 1 21 1h11q33 0 65-7l2-1 14-4q34-12 53-44"/><path fill="#0A0A0A" d="M2387 997h3q19 1 37 11l2 2q6 3 10 9l4 3q18 16 23 40l1 8v3q-1 12-7 22l-1 3-14 19-2 2q-13 18-36 24a85 85 0 0 1-95-67q-2-24 12-42c17-20 37-37 63-37m-28 19-2 1q-22 14-28 39-6 21 3 41l7 10 2 2c10 12 25 25 41 26 17 0 38-4 51-16q19-22 18-52-2-29-24-49l-10-5-3-1-24-3h-3q-15 0-28 7"/><path fill="#26538E" d="m891 855 1 2-4 6-1 2a78 78 0 0 1-48 35l-6 2-2 1-2-1v3l4 1q-34 1-69-7c-23-5-50-4-71 9l-6 5-2 2q-9 8-15 18l-27 35-3 5q-20 26-30 57l-1 3v3l-3 4q-4 0-6-3 0-17 8-32l1-3c16-40 42-79 79-102l2-1q11-8 23-12l3-1q8-2 16-1h4q21 0 40 5 33 7 65-3l3-1q13-5 24-14l3-2v4h5l3-3 4-6z"/><path fill="#BCC9D9" d="M1900 242q33 10 49 39l2 3 1 3a100 100 0 0 1 2 77l-1 3q-7 16-20 29l-3 6-4 3-7 7q-2 4-5 3h-2q1-9 7-15l3-5 2-1 2-4-15 16-5 1-2-1-1-4 5-6 2-2 4-4h-4q1-5 5-9 7-7 12-15h-2q1-8 6-15l1-2 4-6-2 1-4-1q-1-10 5-18l14-27-2 2-2 2-2 3q-3 3-7 3l-2-2q0-7 5-13l1-2 2-5-3 2-3 3-2 1q-4 3-8 3l-4-2q1-10 8-18l-1 1-5 5-1 2-5 1-2-1q0-8 5-14l-1-1-2 2-5 5-5-2 2-15-2 2-4 4h-6l-1-1z"/><path fill="#BDCADA" d="M914 410v2l3 1q1 5-2 8l-6 7-2 1-5 7-12 13q-8 8-13 18l2-2c10-14 10-14 18-15h3l1 4-3 4-2 2-2 2v3l1-2 4-5h5v6l-13 16-9 12 2-2 9-6 2-2 5-2 2 1q0 6-4 8-8 10-12 21l2-2c11-11 11-11 17-12q2 6-1 11l-2 3-5 11 1-1 2-2 1-2 4-1 1-2 5-6 4 1 1 4-7 13-4 7 2-1 9-7 3-1 2-2h7l1 4-2 3-2 2-1 2-2 2 9-8c6-7 6-7 10-7l4 2q-1 8-7 15l2-3 3-3 2-2 4-4 5 1 2 3q-6 9-13 15l-2 2c-8 8-8 8-14 9-18-5-38-17-48-33a81 81 0 0 1-11-57q9-33 40-52z"/><path fill="#164C92" d="M1776 350q5 3 8 8v8q-3 2-7 1l-5-1q-9-2-16 4l-2 1-2 2q-3 4-3 8 2 5 7 7 6 2 13 0c9-3 9-3 15-9l2-7 5-10c8-1 8-1 12 2 4 7-2 20-4 27l-2 6q-4 12-6 23l-5 23-1 3q-2 14-12 21h-13l-4-3-2-1c-16-10-16-10-18-14q-2-6 2-11l2-2 2-2q5-2 10 0l4 6q4 5 10 7l4-1q4-7 4-16l3-18 2-10-3 1q-18 5-34-3-7-4-10-12-3-11 2-23c9-12 27-20 42-15"/><path fill="#0A0A0A" d="M2419 1143q7-1 12 3 34 36 46 83l1 3 6 39 1 2c3 26 3 26-1 35-11 14-33 18-50 20q-19 3-38 2h-11l-21 1-1-3h-4l-8-3v-2h-3q-12-1-22-9l1-4 18 4a142 142 0 0 0 51 6c17 0 17 0 33-3l2-1 6-2 2-1 30-12 8-2q-3-34-14-66l-1-3q-14-41-39-76l-5-8z"/><path fill="#154A8F" d="M1119 310q4 2 6 6v18q1 18-6 34l-1 3-10 18-2 3c-7 8-20 15-31 16-22 1-22 1-30-5l-3-2c-12-12-13-29-12-45q-1-13 2-27v-3l4-11q3-3 8-2h2q3 0 5 3 1 9-2 18c-5 15-6 34 1 48l1 2q3 6 10 8 15 2 27-6c11-9 17-25 20-38v-19l-1-7q-2-5 2-11z"/><path fill="#164C91" d="M1270 299q5 2 6 6v21h2l20-1h2q7-1 13 3l2 2c0 5 0 5-3 8l-6 1-4 1-25 5v20c0 17 0 17 6 32q7 2 13-3 4-6 5-13l4-5c6-1 6-1 9 1q3 6 1 14-4 13-16 20-10 5-21 4-8-3-12-11-3-10-4-22v-3l-1-30h-5l-3 1-5 1q-5 3-11 1-4-2-5-7v-7l1-4q6-2 12-1 8 0 14-4h2v-24l1-5q4-2 8-1"/><path fill="#B5C1D1" d="M2250 1239h6q-1 6-5 11l-3 3-1 2-9 11-64 84-2 3-13 11h-2q1-21 6-40l1-3q4-16 12-31 4-6 6-13 5-9 12-16l1-2c10-11 10-11 16-12l2-1h2q3 2 2 5-2 9-8 16h-3v2q-9 18-22 33l1-1 6-6 2-3 11-11 21-25 9-11 5 1-8 11-1 2 5-5 3-4h2q-1 6-6 11l-1 2-3 3-9 10-1 2-12 13-14 17 3-3 2-1q8-8 15-17l9-11 21-27 1-1 3-5z"/><path fill="#1D549B" d="M1478 71h13v1h-10l-3 1-15 1v2l8 1q35 3 66 17l3 1 14 8 5 3c7 4 15 14 19 22l-1 3-7-9q-8-8-20-14l-3-2q-26-14-55-19h-3q-34-7-68 1l-3 1c-26 8-48 29-64 51l-1 10-2 2-5-1-3 4q-3 0-5-4v-4l-1-7-9-7q-3-1-4-6l-4-5 2-1 3 1q-19-13-42-18l-3-1-20-1-29-1q13-7 28-5h2q48-1 83 34l1-1a157 157 0 0 1 133-58"/><path fill="#BAC8D9" d="m1931 401 10 12 1 2 4 5 2 2c8 12 12 29 11 43l3 1-1 3-1 7-1 5v2l-2 5-3 1-2 3-11 14-5 6-8 2-5 5-2 2-23 28h-3l5-10 2-2 2-3 16-19-4 3-1-2-1 1-2 2-2 2-2 1-3-1-6 3h-2v-2l7-4q19-16 29-40l-2 3-4-1q-2-4 1-7l1-3 1-3 1-2 3-7-5-2 1-4v-3l2-4-4-1q-1-7 2-12l1-2 2-6 1-3 1-2-2 2-1 1-4 4-2 3-3 2q-3 3-7 3l-1-1q1-8 6-15l2-6 4-5zm32 53c5 5 3 15 3 22q0 19-10 36v-4l1-3 1-3 1-3q5-15 3-31z"/><path fill="#B8C3D2" d="M453 1216h1l5 23c9 42 9 42 6 47l-6 6-8 8-1 2q-5 6-12 6v-7l1-2 2-2 2-3 3-4 1-3 7-10-10 11-13 13-11 12-5-1q1-7 5-11l2-2 4-6 22-30-13 12-12 11-10 10-4 2-2-1c0-5 1-5 3-9l3-2 24-27a266 266 0 0 0-44 45l-11 12-5 1-1-5 3-3 9-11 29-37 12-15 12-16 2-2 6-9h3z"/><path fill="#B8C4D3" d="M2316 1324h1l3 23v54l-13 6-3 2-3 1-12 4-2 1h-3l-3 1-21 2h-24v-1h17l1-5 2-4 2-3 1-2 2-3 15-21 6-9 21-27c6-9 6-9 10-12z"/><path fill="#090909" d="M332 1134h4l3 1q1 7-2 12l-9 33-3 9q-13 53-21 108l-1 11-1 6h-5c-3-3-1-12-1-16q0-20 4-41l1-4 13-65-1 2-45 69-2 2-12 19-2 2-2 2-1 2-3 4q-4-1-8-3 1-6 5-11l17-24 2-3 51-75 1-2 4-6 2-3 3-8 1-3 1-4 2-7 1-4q1-4 4-3"/><path fill="#B6C2D1" d="M2380 1141h2l14 2c6 0 6 0 8 2v3h-2l-1 2-4 6-1 2-2 2-2 2-3 5-7 9-2 3-6 7-2 2-46 63-1 3-6 10h-5q0-5 2-8l2-2 20-30 2-2 35-46-2 1a301 301 0 0 0-33 40l-11 15q-3 5-6 5l-7-2c3-29 22-55 38-78l6-11q3-2 7-2-2 7-5 11l-3 4-2 2-7 11-2 2-1 2-1 1-2 6q8-6 12-13l14-16c6-6 6-6 10-13"/><path fill="#FBFCFD" d="M2441 1183q5 4 6 9l-5 11-2 2a541 541 0 0 1-66 86l-19 23-1 2q-12-1-22-5l2-2 26-29 16-20 22-27 1-2 12-15a237 237 0 0 1 30-33"/><path fill="#0F407E" d="m416 1374 5 2 5 1c17 2 35 11 45 24q7 9 6 20-3 10-13 14-23 11-47 9l-2-2 1-7q3-2 8-2h5l-1-2a96 96 0 0 1-3-32v-6l-2-6-4-2-5-3v-6z"/><path fill="#FAFCFC" d="m2277 1254 2 1 4 2 7 7v2l-4 4-8 9-3 4-7 8-7 10-2 2c-31 40-31 40-42 51l-7 9-9 10-15 17-2 1-7 8-4 2h-3l-2-1h-2l2-3 30-41 27-35 10-12 18-24 6-7z"/><path fill="#174C91" d="M1704 343q10 5 13 15l6 30 1 5q1 6-1 12-4 3-9 2c-8-6-8-18-9-27s-1-9-5-16q-3 0-7 2-12 13-19 31c-3 6-3 6-6 8h-6q-4-4-6-9l1-4v-37q2-5 6-8 4-1 8 1 3 2 2 5v10q5-2 8-7 8-15 23-13"/><path fill="#B8C3D2" d="m2447 1194 7 12 1 3 2 5-12 15-2 2-25 30-30 39-3 3-8 11-1 2-4 4q-8 1-14-1l-4-1-3-1 2-2 9-11 40-47q23-29 42-59z"/><path fill="#174C92" d="M1181 343q11 6 14 18l3 18 1 3 2 10c2 9 2 9 0 13q-5 3-10 1c-8-8-8-20-10-31l-2-11h-7q-12 12-19 28l-1 2-2 5-6 6h-5q-4-4-6-9l1-4v-37q2-5 6-8 4-1 8 1 3 2 2 5v10q5-2 9-8 7-13 22-12"/><path fill="#BBC8D8" d="m1269 562 4 3q0 4-5 8l-22 23-17 19-1 2-4 3 2 2a364 364 0 0 1-75-2q2-6 6-10l2-2 14-14 3-3 4 1q2 4-1 7l-2 4-1 2-3 5 2-3 10-12 2-2 7-5h2l1 3q0 5-4 9l-7 14 18-20 2-2 3-3q4-5 9-5v7l-2 3-1 2-2 3-2 2-4 7 10-10c13-15 13-15 18-18h4v6l-1 2-2 3-1 2-3 5-2 3-5 10 13-15 16-17 6-7z"/><path fill="#2A558F" d="M1818 1040q4 3 5 8c15 40 71 60 107 76l21 9 2 1 13 7-1 5q-10 1-21-3l-4-2q-41-11-76-34l-2-1q-34-24-51-62h5z"/><path fill="#BECBDC" d="m1578 539 6 1 1 5-3 5-2 3-2 1-7 11-6 8 2-1 2-2 16-14 2-2 8-4-7 12-2 1-9 9-17 15-2 2-8 8 5 2v3h-4q-10 3-16 12l-3 5c-7 9-21 12-32 15l5-12 1-1a302 302 0 0 1 34-43l14-14 19-21 4-3z"/><path fill="#164C90" d="m1556 275 7 4 1 9v11l-1 80q-1 10 3 19 3 4 1 10-3 4-7 3-5 0-9-4-6-11-4-23v-19l2-39v-39l1-4v-6z"/><path fill="#164B90" d="M1596 276q4 0 6 2 4 4 3 10v44l-2 43v3q0 11 4 21v7q0 3-3 5-4 2-9-1-6-4-7-11v-63l2-18 1-27v-9q-1-7 5-6"/><path fill="#114381" d="M499 1379q4 1 7 5l5 11 2 5v2l2 3q5-9 6-19l4-5h5q8 6 6 17 0 21 8 41l1 8q-2 3-5 2-5-1-7-7-6-16-7-33l-1 2-1 4-2 3q-1 4-5 7h-5q-8-8-10-19l-4 9v2l-2 6c-5 15-5 15-9 19q-4 0-6-3l-1-8 3-7q9-19 10-39 0-5 6-6"/><path fill="#B5C1D0" d="M2114 1159h2v9l-2 3-2 3-9 13-17 26-23 39 1-1a723 723 0 0 0 51-64l1-2 13-14 3 5-1 2q-12 12-22 27l-21 27-2 2-37 43-23 28-1 2-6 7-5-2 10-16 2-3 13-17 26-39 1-2 12-17-10 10-2 4-2 1-6 8-2 3-2 2h-3l-3 2 7-10 1-2 11-12a437 437 0 0 0 37-52l1-2z"/><path fill="#12427F" d="m272 1376 41 17q3 6 0 13c-7 8-21 9-31 10h-5q-3 1-5 4v5l-1 3v11l-2 4h-7c-6-10-1-30 2-41v-11q0-4-3-6-2-6 1-10 4-2 10 1"/><path fill="#B6C2D2" d="m2305 1305 2 1q-2 9-9 14l2-2 6-2 2 1-7 12c-5 4-5 4-8 10l13-15 2-1q4-5 5-12 3 6 3 11l-7 7-49 50-1 2-17 20-1 1h-3l5-10 9-10-6 6-10 9-6 7-10 10-3-3q2-6 6-10l1-2 12-15 27-34 28-34 2-2 4-4 3-3q2-2 5-2"/><path fill="#1D4B88" d="m2603 883 14 2 6 1q16 2 28 13 3 7 0 13-2 6-9 8l-11 2 11 11 2 2 6 7c0 5 0 5-3 8q-6-1-10-7-10-11-24-20l-3-6q0-3 2-5 4-3 9-1l2 1q9 1 17-4l-1-5-8-4-2-1q-6-2-13-3h-6v40l-1 4v6l-3 6q-4 0-7-4l-1-4v-8l-1-31v-3q1-4 3-8z"/><path fill="#BAC5D3" d="m418 1135 1 6q0 3-4 5l-2 3-2 1-7 9-1 2-23 27-15 19-2 3-28 36-28 35v-13l1-2 3-19 1-2q0-8 6-12l5-6 11-12 6-7 12-12 3-3 5-5q0 5-5 9l-3 3-2 2-12 14-12 13c-6 6-6 6-8 14q5 0 9-5l1-1 3-4 2-1 6-8 18-20 13-17 32-41 2-5 4-3 3-1 2-1z"/><path fill="#1D4B88" d="m2574 889 2-1q6 0 10 3 3 2 2 5l-1 4h-8l-4-1q-10 1-20 6l-5 1v11l10-2 8-2h19l6 3-1 5q-4 2-10 1c-9 1-26 2-33 9v8l3-1q14-2 27-2h3c8 0 8 0 11 2l-1 5q-9 4-19 4l-17 3h-9l-3 1-5-3q-2-3-2-7v-3l6-44h4l11-3q7-2 16-2"/><path fill="#B4C0D0" d="m2417 1144 5 8-3 6-1 3-4 6 8-7 2 1q-1 5-6 10l-1 1-22 23-6 7-17 20-15 21 2-3 2-2 7-6h2q-2 7-7 11a377 377 0 0 0-37 49l-5-1q0-6 3-10l12-18-2 2-8 7-5-1 5-10 2-2 3-3 35-42 18-21 23-29q8-8 10-20"/><path fill="#B8C4D3" d="m2054 1147 3 1 3 1 4 2q9 2 19 3h9v1h-14l-2 5-3 4-1 2-2 2-3 5-2 3-23 30-13 18-14 18h-6q2-11 7-20l1-4 4-9 1-2q10-26 27-47 4-4 3-9z"/><path fill="#10407D" d="m404 1373 2 4v33l1 7 5 3-1 5-4 1v2q3 8 2 15-2 3-5 2l-5-1-2-10-1-4h-12q-9 0-15 6l-2 3-5 6h-6l-2-2q0-6 5-10l16-20 2-2q10-16 18-35 3-4 9-3"/><path fill="#11417F" d="M640 1372c6 0 6 0 9 3 1 18-6 48-17 63l-5 1q-7-3-10-10c-5-11-5-11-5-15h-2v5l-1 2-1 5-1 13-1 5q-3 2-7 1l-3-4 2-18v-2l4-16 2-15 2-5 6-1 5 3 1 8 7 23v2l1 2c8-7 10-23 11-33l1-12q0-3 2-5"/><path fill="#BAC7D8" d="m903 501 2 1-2 6-2 4-4 9 1-1 2-2 1-2 4-1 1-2 5-6 4 1 1 4-7 13-4 7 2-1 9-7 3-1 2-2h7l1 4-2 3-2 2-1 2-2 2 9-8c6-7 6-7 10-7l4 2q-1 8-7 15l2-3 3-3 2-2 4-4 5 1 2 3q-6 9-13 15l-2 2c-8 8-8 8-14 9-16-4-33-14-43-27h3l1-3 5-10 1-2q3-6 9-11"/><path fill="#255593" d="m1537 81 3 2a84 84 0 0 1 22 16l2 3 2 2c9 10 27 29 27 44l4-2v2l6-2 2 3-2 1-8 8-4 3h-9l1-2q0-13-7-25l-2-5 3 1q-4-9-11-16l-2-2-2-2-1-2-9-6-2-1q-37-20-78-23l-14-2 2-1 3-2 7-1h-15v-1c27-4 58-3 82 10"/><path fill="#F8FBFB" d="M1427 309c32 1 32 1 43 10q5 4 5 10 0 8-6 12-11 9-25 8h-10q-3 1-5-2-2-7-2-15v-23"/><path fill="#BCC9DA" d="M1020 507q-1 9-6 14l-2 3-7 11-2 2-1 1h-2l3-10-20 19-1 2q-4 3-4 7l-18 1h-7q-11 1-23-2l8-6q6-3 10-9l2-1 12-15 8-8 4 1 1 4-4 8-2 2-12 16 12-11q9-11 20-19l5 1q1 5-2 8l-3 4-2 2-3 3-6 8 11-9 1-2c23-26 23-26 30-25"/><path fill="#134481" d="m252 1377 5 4-2 6h-4q-14 3-26 10l3 4 2 1 3 2 5 2q12 4 17 14 2 8-3 14-6 7-16 7c-21 1-21 1-28-5l-4-6 2-6q7-1 14 4 8 4 18 1l5-2q0-4-3-7l-16-7q-10-4-15-14v-6l11-7 4-1 3-2 4-1c14-6 14-6 21-5"/><path fill="#1E4C88" d="m2706 887 1 8q-3 2-6 1l-16 4-2 1-6 5-1 2 3 2 5 2 2 1q11 5 19 15 2 7-1 14-8 8-19 8-17 1-29-8l-1-6 2-3q6-1 11 3 12 5 24 1l3-1q0-4-4-7l-18-9q-8-3-12-9v-10q8-7 18-10l2-1c19-6 19-6 25-3"/><path fill="#F6FAFA" d="M1474 373q6 4 8 11-1 7-7 10-19 11-41 8c-5-9-5-24-4-34 8-8 36-1 44 5"/><path fill="#959697" d="m444 952 8 4 10 2h4l21 3q0 4-3 7l-3 2-2 2-6 4q-4 5-7 12l2 11 4 2 2 1 13 5 2 1 1 3c-20 2-20 2-26-2l-3-7-8-9-1-2-4-4-2-2-15-13 7-11z"/><path fill="#1D4B88" d="M2533 887q2 4 1 8-3 2-6 1-12 2-23 8l-3 1q2 5 6 6l3 1 2 2c15 6 15 6 19 14q2 8-2 14-9 9-22 8-15 1-26-9v-6q2-2 5-2 4 0 7 3l14 3h2q6 0 11-4l-1-5-12-7-2-1-5-2q-9-3-14-11v-7c8-9 34-20 46-15"/><path fill="#BAC6D4" d="M359 1139h2q19 3 37 2l-14 16-13 14-9 9-34 38-8 9q0-4 3-7l2-2 2-3 31-39 2-3 5-7 2-2 3-4q7-7 9-17-13 6-21 18l-18 22-12 15-1 2-4 4h-1l4-22 1-4 2-8 2 1 2-2 13-15 7-8 5-4z"/><path fill="#0C0C0C" d="m2355 1143 5 2q1 5-2 9l-7 8-1 3a199 199 0 0 0-38 96l-3 7v6h-2v-3l-1-3-2-1q1-17 5-35l2-14q5-45 42-74z"/><path fill="#FBFCFD" d="m2456 1215 2 1q2 5-1 10l-6 10-5 6a408 408 0 0 1-38 49l-1 2-10 13-3 4 1 3q5 0 9-5l2-2 1-2q0 5-4 8l-5 8h-26l7-10 2-2 2-2 25-32 1-2 33-40z"/><path fill="#B6C2D1" d="M442 1176q4 6 4 14l-5 5-6 7-2 3-2 1-32 40-20 26c-27 34-27 34-35 41h-4l4-8 1-2 2-2 4-5 1-3 19-25 13-17 17-21q4-3 4-7l3-3 1-2 2-2 4-4 1-2 9-11 11-13 4-5z"/><path fill="#B4C0D0" d="m2262 1250 4 2q-1 6-5 8l-30 37-1 2-10 13-13 16-20 25-6 8-16 20-2 2-2 3-4 8h-1v-19l2 4 2-3q12-22 31-42l23-26 7-10 27-34 1-2 3-4c6-8 6-8 10-8"/><path fill="#1D4B87" d="m2475 890 4 4v10q1 22-13 38-11 9-25 8-8 0-14-7-5-10-5-21v-3c0-22 0-22 5-27h7q2 3 1 5l-1 12q-5 14 2 26 2 4 7 5 8 0 14-5h2l1-2 2-4q8-15 7-31v-6z"/><path fill="#B9C4D3" d="m425 1142 4 1q-1 7-5 11l-2 2-4 5-2 3-14 15-11 14-73 91-1 2-4 3-5-1 1-5 2-2q6-6 9-13l8-11h2l3-4 11-13 23-29 2-3z"/><path fill="#27548D" d="M1478 71h13v1h-10l-3 1-15 1v2l8 1q35 3 66 17l3 1 14 8 5 3c7 4 15 14 19 22l-1 3-7-9q-8-8-20-14l-3-2q-26-14-55-19h-3a159 159 0 0 0-74 2l-4 1v-2l-3-1 1-4 8-3 3-1 19-5h3q18-4 36-3"/><path fill="#B6C2D2" d="M2087 1156h4q-1 7-6 13l-1 2-19 28-2 2-1 3-2 1q-3 4-7 4l-2 4-2 4-2 2-1 2-2 2-36 49-2 2h-1v-10l1-13h1l1 5a473 473 0 0 0 38-52l17-21 5-6z"/><path fill="#144581" d="m574 1381 10-1 6 2 1 5-3 3-8 2h-6l-1 13v2l-1 22h11c6 1 6 1 8 3l-1 5q-5 3-11 3l-13 2q-8 2-16 1l-2-6q1-3 4-5l10-1v-37l-10-1-3-3 2-7q4-2 9-2z"/><path fill="#FAFCFC" d="M2131 1176q5 3 6 7-1 7-6 10h-2l-1 2q-2 4-7 8l-11 13-9 10-9 10-51 61-2 2-10 14-4 3-5-2 7-10 1-2 5-6 2-2 39-47 6-7 30-37 13-18 2-2 2-2z"/><path fill="#10427F" d="M178 1380h7l11 1q3 0 5 2l1 4q-3 4-7 5l-10 1-3 24v13h17q3 2 2 5v2q-4 3-8 2-7 1-13 3-9 2-19 1-2-2-2-5t2-5l6-2h4v-9l1-3 1-13v-12h-8l-5-4 1-6q6-2 12-2 3 1 5-2"/><path fill="#969798" d="m455 927 2 2q0 6-5 8l-2 2-4 3v8q0 3-3 5l-2 3-2 2-1 2-3 4-1 1-4 5-2-1q-12-7-26-12 5-8 12-15l3-2 2-2 2-2 5-3 2-1 1-3 7-2 3-1q8-2 16-1"/><path fill="#B6C2D2" d="m2295 1278 1 4-5 6-3 3-2 1-9 12-63 83-7 8-12 14-9-2 3-1 1-2 7-11 2-2 13-15 22-27 1-2 20-25 30-39 2-2 1-2z"/><path fill="#F7F9FA" d="M2162 1248h2l8 25q0 6-4 11l-1 3-3 5q-7 9-10 20l-3 4-9 2h-3l-9 2-3 1h-12q9-12 19-21l13-13q0 5-3 8l-2 3-5 7-2 3-2 3-1 2 1 3 2 1 1-2q2-5 7-11l3-4 2-3 16-22-7 3 7-10 1-6q-6 3-10 9l-3 3-2 2-8 10-2 2-16 17 1-5 2-1q11-12 18-26l10-15 2-2z"/><path fill="#0F0F0F" d="M2240 1094c15-1 34 1 46 10 9 9 9 9 9 14l-3 1-4-7-2-1-7-4-3-2-2-1-1 1 10 8h-8l-2-1-2-1q-11-5-22-5h-8q-25-3-44 12l-2 2-2 2a84 84 0 0 0-23 56q-2-3-2-7v-15h2v-2l7-18 8-13h2v-2h2v-2l6-5 2-1 8-6v-3l4-3 2-2q10-3 19-4h10z"/><path fill="#2B5A98" d="m1144 618 12 2 3 1 31 1h3q28 0 55-4l-2 6 9-1-4 3-5 1-2 1q-54 16-107-4v-1h5v-2z"/><path fill="#B6C2D1" d="M2447 1194q4 4 5 10l-2 2-4 5q-2 5-6 9l-5 5-20 25-30 39-1 2-7 11q-8 11-20 16l-6-2 3-1 3-3 1-2 2-3 18-21a954 954 0 0 0 66-88z"/><path fill="#FAFCFC" d="M2117 1214q1 4-2 7l-2 2-2 2-13 19-14 22-5 8-18 25-14 21h-6l-3-1-6-1 5-8 1-2 2-2 2-2a847 847 0 0 1 55-67l1-1z"/><path fill="#B7C2D1" d="M2441 1183q4 3 4 7l-1 1-17 17-2 2-5 6-3 3-27 34-18 23-18 22-9 11-4 4-5-1h-2l-2-1 2-2 26-29 16-20 22-27 1-2 12-15a237 237 0 0 1 30-33"/><path fill="#BBCADC" d="M1954 487h1c-1 20-12 37-25 51q-10 7-22 11l-3 1-8 3-2 1-12 2 5-8 3-2 2-2 2-2 5-5q0 5-4 8l-1 4 9-7 19-23 2-3 2-2q4-3 9-2l1-2 4-5 1-2z"/><path fill="#B7C3D2" d="m2290 1265 4 4-2 2a1106 1106 0 0 0-63 80q-16 21-35 38l-1 2-5 5-2 1-8 7-6-2 2-2q11-7 18-18l20-22 1-1 31-37 8-11 11-14c23-30 23-30 27-32"/><path fill="#C0CCDC" d="m1041 499 2 1q-1 7-7 13l-1 2-8 9q-3 4-3 9l-1 3v2l4-3 2-2 5-5 2 1-2 1-1 2-2 2q-2 2-2 5c-17 8-34 16-53 16q12-15 27-28v5l-1 2-1 2-1 2 2-2 5-5 27-28 2-2q2-2 5-2"/><path fill="#9C9D9E" d="m337 985 1 2-2 4-1 5-5 15-1 3-1 2-1 2-4 3-1 3c-5 11-16 19-25 26h-1c-2-17 7-34 17-47q11-11 24-18"/><path fill="#B8C3D3" d="m2303 1284 4 8-2 1q-3 2-7 6l-1 1-19 24a648 648 0 0 0-52 63l-14 17-1 2-6 6-7-2 21-26 16-19 8-10 42-50 13-16z"/><path fill="#B9C4D3" d="M448 1197q2 4 3 10h-2l-2 1-2 5a249 249 0 0 1-26 37l-36 45-20 26-5-1-1-5 5-6 51-63 1-2 7-9q15-18 27-38"/><path fill="#B5C1D0" d="M2391 1143h8q3 0 5 2v3h-2l-1 2-4 6-1 2-2 2-2 2-3 5-7 9-2 3-6 7-2 2-46 63-1 3-6 10h-5q0-5 2-8l2-2 20-30 2-2 41-53-25 28q-1 3-5 3l-2 1c4-9 13-17 19-24l7-7 23-25-7-1z"/><path fill="#2A5A99" d="M1959 287c7 6 12 21 13 30q4 29-12 54l-2 3c-11 17-11 17-16 19l4-7-4 3-2 2-5 5-2-1 1-1q15-15 21-35l1-2q4-15 3-30v-4l-1-16 1-5h2l-2-12z"/><path fill="#B7C3D1" d="M375 1143h4q-3 13-12 23l-29 36-11 14-4 5-1 2-5 3q1-12 4-24h3l5-6 2-2 12-16 27-31 2-2 2-1z"/><path fill="#275697" d="M1775 575q2 5-1 8l-2 8 2-1q0 8-7 14a79 79 0 0 1-55 17q-12 0-22-3v-1h3c31-6 59-14 80-39z"/><path fill="#F7FBFC" d="M436 1390q17 4 27 16 5 7 3 14-8 9-20 11h-6q-7-19-5-40z"/><path fill="#B7C3D2" d="m2277 1254 3 2q-1 7-6 12l-2 2-54 69-27 36-7 11-2 2-7 10-2 2-4 1-3-1 2-3 30-41 27-35 10-12 18-24 6-7z"/><path fill="#B4C1D0" d="m2421 1152 10 12-6 9-2 3-1 2h2q0 4-3 5l-2 2-2 1-4 2q-10 8-18 18l-11 12-3 3-2 3-3 3c-5 6-5 6-8 7q-7 5-12 12l-2 2-11 14-5 5c7-16 21-30 33-44l3-5a543 543 0 0 1 49-54l-1-3-9 8q0-5 3-7z"/><path fill="#F5F8FA" d="m415 1137-11 13a318 318 0 0 0-32 39l-25 31-23 31-14 18h-1l2-21 1-3c1-9 1-9 5-12l3-2 3-4 11-12 6-7 12-12 3-3 5-5q0 5-5 9l-3 3-2 2-12 14-12 13c-6 6-6 6-8 14q5 0 9-5l1-1 3-4 2-1 6-8 18-20 13-17 32-41 2-5 3-3z"/><path fill="#F9FBFB" d="M2449 1268q0 6-4 10l-1 2-13 20-2 2-6 9 1 3q4 0 6-3l2-3 15-16 13-11q-4 9-9 16l-2 2-1 2q-2 5 0 10l-9 3-3 1q-12 6-25 5h-9a292 292 0 0 1 47-52"/><path fill="#B9C4D3" d="M453 1216h1l1 8-2 1q-5 2-6 6l-2 3-2 3-23 31 2 4-2 2-14 15-8 9-7 8-11 12-3-1-1-5 3-3 9-11 29-37 12-15 12-16 2-2 6-9h3z"/><path fill="#B6C2D1" d="M2316 1324h1l1 9h-2l-1 3-5 10-2 2-22 29-7 9 1-2 2-1 1-2q2-2 5-2 0 4-4 7l-1 2-2 2-3 4-2 2-8 9-3 3-3 5-4 5h-22v-1h17l1-5 2-4 2-3 1-2 2-3 15-21 6-9 21-27c6-9 6-9 10-12z"/><path fill="#305B95" d="M1860 1095q6 2 11 6l16 9 2 1 9 4v-2q10-2 18 4l42 19 8 5-1 5q-12 0-22-4l-4-1-19-6v-2h2v-2h2v-2h-2c-21-5-47-18-62-34"/><path fill="#1A4E92" d="M1633 353q5 1 8 5l1 6 1 4v8l1 11v3c1 13 1 13-2 17l-6 3q-4-1-6-6-3-10-3-20v-4c-2-19-2-19 1-24z"/><path fill="#BCC8D8" d="m1291 550 4 1 1 4-5 6-1 2-28 35-2 2-3 4c-7 7-7 7-11 15l-5 1-3 1-7-1h3l1-2q4-9 10-16l2-3 27-30 8-9z"/><path fill="#174C90" d="M1521 354q4 2 5 7v7l1 4v4c2 26 2 26-1 31l-6 2q-4-1-6-5-4-16-3-33v-11l1-5q5-2 9-1"/><path fill="#184C90" d="m1223 354 4 3 1 6v3l1 4v4l2 21v4q0 6-5 10h-5q-5-4-6-10l-1-6v-11c-2-24-2-24 0-27q5-2 9-1"/><path fill="#F8FAFB" d="m2054 1147 3 1 3 1 4 2 9 2-7 9-28 32-9 11-4 4-1 2h-2q1-7 5-13l1-2 24-45z"/><path fill="#BBC8D8" d="M1323 538h2l1 5-5 5-7 8-35 43-1 2-6 8q-2 4-6 5l-6 1q19-37 50-66l9-10z"/><path fill="#FAFCFC" d="M2141 1192q5 3 6 8-1 7-6 12l-1 1-20 22-16 18-14 17-10 10 2-2 1-2 22-34 15-23 15-21 2-2z"/><path fill="#245FAB" d="m1238 99-3 1 18 1v1h-5v2h-2a113 113 0 0 0-81 29l-3 2-5 4q-11 7-15 19-1 4-5 6l1-7v-4l3-3 8-9c14-20 34-36 58-40l20-2 5-1z"/><path fill="#F9FBFC" d="M2078 1216q0 6-5 10l-13 20-25 37-2 2-18 26-10-4 8-11 13-16 27-33z"/><path fill="#F8FAFB" d="m368 1140 14 1h16l-14 16-13 14-9 9-35 38-7 9q0-4 3-7l2-2 2-3 1-2 15-17 15-20 2-3 5-7 2-2 3-4q7-7 9-17-13 6-21 18 0-4 3-7l2-2 1-2h-4l2-4 1-3z"/><path fill="#1A4D8E" d="m1653 119 3 2 7 2-8 3c-26 7-26 7-48 22l-6-1-4 1v-3l4-3-2 1-5 1-1-4a131 131 0 0 1 60-21"/><path fill="#1B4E8E" d="M1259 96h2q47 0 81 32l-1 2 2 7-2 1-1-2c-12-18-37-28-57-32l-3-1-20-1-29-1q13-7 28-5"/><path fill="#275897" d="M1263 101c22-1 46 8 63 21l-1 2-4-2 3 3 2 3-1 3-3-2q-15-10-33-14l-3-1q-25-7-51-8v-1l13-1v-2z"/><path fill="#F9FAF9" d="M307 955h9l5 2-3 1-8 6-10 9v-3l-8 1-1 1q-6 5-13 3h-3l-11-1q5-8 14-13l3-2 4-1 8-2z"/><path fill="#F8FAFB" d="M2066 1207q0 5-3 8l-2 3-2 2-36 52-13 19-2 4-5 4v-14h2l1-2 5-8 2-2 22-29 13-16 10-12z"/><path fill="#F6FBFD" d="M1956 351h1q-4 27-24 45l-3 6-4 3-7 7q-2 4-5 3h-2q1-9 7-15l3-4 2-2 2-6 5-5 24-30z"/><path fill="#FAFCFE" d="M1749 560q0 5-4 8l-2 4-2 1-5 8-11 16-2 2q-5 8-15 9l-17 1h-2q-5 0-9-2h2q9-3 14-12l8-8-1 4-1 10 4-1 2-2 2-2 5-6 1-2 3-4 10-10-5 8-19 23q7-2 10-8 16-19 34-37"/><path fill="#F5FAFD" d="M1591 557v4l-3 5-5 7-2 2-2 5-7 9-2 1-6 7q-15 16-34 25l-2-1 7-8 2-2 2-2 2-2 2-2 2-2q2-2 6-1h4l-1-3-5-1 15-15 2-2 11-10z"/><path fill="#F5F7F8" d="m2129 1265-2 7-2 2-2 3-7 10-1 2-1 2-14 21-3 3-1 5 4 4-7 1h-17l5-7 8-9 11-12 17-20 2-1z"/><path fill="#F8F8F8" d="M319 963q1 3-3 6l-17 18-22 26c-9 11-9 11-16 23q-5 3-12 1 0-6 3-13l1-3q3-5 8-8h3l2-1h6l4-3 2-3 2-2 2-2 17-20 3-3 2-2 4-2 1-2q2-4 6-6l2-2z"/><path fill="#F6F9FB" d="m2453 1204-1 8-2 3-3 2-2 3-40 50-21 26-17 23h-7l-2-2 8-6q7-4 11-11l40-52 25-32 2-3q3-2 2-5 4-5 7-4"/><path fill="#B5C1D1" d="m2112 1252 1 2-10 15 3-1c-5 13-16 24-24 35l-2 2-9 12-1 2q-3 5-6 5l-3-1h-4l22-30 27-34z"/><path fill="#F5F6F5" d="M287 1042q4 12-2 24l-9 9-5 5c-4 4-4 4-8 4l-3-1q0-9 3-16l1-3q2-6 6-6l3-1 5-5 3-2z"/><path fill="#214F8A" d="M1478 71h13v1h-10l-3 1-15 1v2l9 2h5v1h-18v2q-9 3-19 3l-23 5-6 1v-2l-3-1 1-4 8-3 3-1 19-5h3q18-4 36-3"/><path fill="#F3F7F8" d="M2295 1374q0 6-5 10l-11 16-1 2-5 10q11-3 18-14l13-12q0 4-3 8l-1 2-2 3-3 5-2 3-2 6c-9 5-23 5-33 5q2-5 7-11l10-11z"/><path fill="#F8FBFC" d="M453 1223q4 4 5 10v3l1 11-3 3-2 2-2 1-7 7-2 2-2 2-4 2q3-7 8-12 5-2 5-8l-3-1-4 3-2 2-8 8c-9 9-9 9-14 11l8-11 15-20 1-2 2-5q3-5 8-8"/><path fill="#A1A1A2" d="M404 918q-1 6-6 11l-6 2-4 3-1 2-4 4-4 5h-2l-1 2q-4 10-14 13l-10 2 13-15 6-9 16-13 3-2c9-5 9-5 14-5"/><path fill="#F1F6FA" d="M2610 895q18-2 31 9l-1 5q-7 6-15 4l-7-2-6 1-3 4v-16z"/><path fill="#F3F6F8" d="M2381 1168q0 5-4 8l-14 16-1 2a617 617 0 0 0-43 59l-2 3-1 3-5 5 2-18 1-4 1-7 9 1 2-2 2-3 2-3 18-22 2-2 21-25z"/><path fill="#CDE0F4" d="M1255 624c-34 15-74 14-109 3l-2-2h2a275 275 0 0 0 55 3q26 1 48-5z"/><path fill="#F9FCFD" d="m2383 1143 16 1-12 13-21 23-19 20 4-7 1-2q13-20 28-39 3-4 3-9"/><path fill="#F8FAFA" d="m339 1132 2 1 2 1 3 1 5 2h2l6 2q-1 5-5 7l-9 10-7 8-3 3-5 5 5-22 3-9v-6l-3-2z"/><path fill="#EAEAEA" d="m441 1150 4 8 2 3 1 4 1 2 5 13 1 3q16 42 17 87v5h-1v-2a652 652 0 0 0-30-123"/><path fill="#1B4F8F" d="M1219 313q10 6 13 17l-1 4q-6 3-12 1-8-2-13-9-1-6 3-11 5-2 10-2"/><path fill="#F0F7FC" d="M1775 575q2 7-2 12-13 20-37 26l-9 1h-15l9-3q33-9 54-36"/><path fill="#194D8E" d="M1512 312q10 3 15 12 3 4 2 9-2 3-6 2-9 0-16-5-4-4-3-10 2-7 8-8"/><path fill="#EDEEEE" d="M409 973c15 1 27 13 37 23 8 9 8 9 8 13-16-3-28-16-37-28l-8-7z"/><path fill="#194D8E" d="M1629 313q9 1 13 10l4 7-3 5q-11 1-20-5-4-2-3-7 0-3 2-7l3-2z"/><path fill="#F4F8FB" d="m1100 573 2 1-2 3-2 4-1 2q-4 6-3 11 7 0 10-5l8-7q-2 7-6 14l-2 6q11-2 19-11l1 2-2 4-1 2-1 2-1 2-3 6q-17-3-30-16l-2-4 3-2 3-4 2-1z"/><path fill="#E5F2FA" d="M1065 155h8l-7 3-3 1h-3q-12 3-23 8l-3 1a87 87 0 0 0-46 62h-1q0-25 18-43c17-18 35-32 60-32"/><path fill="#E5F2F9" d="M1695 117a135 135 0 0 1 107 45l-1 2-3-3c-27-27-66-38-103-43z"/><path fill="#F9FCFD" d="M2318 1351h1c3 26 3 26-5 36l-9 9q1-7 6-12 4-4 4-11-7 4-13 9l-1 2-16 16q0-4 2-6l2-2 1-2 4-5 1-2 7-9 1-2 7-9 2-3z"/><path fill="#F6F6F6" d="M335 988q1 12-5 23l-1 3-1 2-1 2-4 3-3 6q-3 6-9 11h-2q2-9 6-16l1-2v-6l2-5 2-4 2-2 11-12z"/><path fill="#F6FAFC" d="M281 1390q13 0 22 5l1 4-3 3-2 1h-2q-7 3-15 2h-7l-1-7v-3q1-6 7-5"/><path fill="#EEF6FB" d="M1959 287c7 6 12 21 13 30 2 18-1 39-12 54l-3 2 1-2 4-15 1-4q3-12 2-24v-2q1-19-5-34z"/><path fill="#999A9B" d="M472 973h3l-1 2c-7 7-7 7-8 17l2 7 4 2 2 1 13 5 2 1 1 3c-20 2-20 2-25-1q-4-5-6-11l-2-2-1-2q2-7 7-13l1-2c4-7 4-7 8-7"/><path fill="#2F5C97" d="M1969 293q10 11 10 26 2 15-3 30h-1l-1-7q-3 4-3 9h-2l2-10q3-24-7-46h3v2h2z"/><path fill="#F3F8FB" d="m1948 427 4 3 4 11 2 17q0 5-3 9l-3 2-13 14q0-4 3-7l2-2 1-2 4-5 2-2 3-9-1-2-4-1q-6 5-10 11l-1-2 6-11 1-2 1-6-5 1 4-11 2-4z"/><path fill="#BBC8D8" d="m903 501 2 1-2 6-2 4-4 9 1-1 2-2 1-2 4-1 1-2 5-6 4 1 1 4-4 5-2 4-1-2-1 1-7 5-11 8-6-5 3-1 2-6 4-7 1-2q3-6 9-11"/><path fill="#EAF4F9" d="M1468 76c33-1 61 3 86 25q-6 0-10-4l-30-11-2-1q-21-5-44-8z"/><path fill="#BCC9DA" d="M1931 401q5 5 9 11v3h-2l-1 2-3 3-5 5-10 9-4-1q1-8 6-15l2-6 4-5z"/><path fill="#F7FAFB" d="M2152 1219h2l1 8-4 6-2 2-3 3-5 7-19 23-21 23q1-5 4-9l3-3 2-2 16-22 2-2 8-11 2-2 8-13h2l1-2z"/><path fill="#F7FAFD" d="M1929 512q0 4-3 7l-8 14-3 7-2 5q-5 7-13 7l-4 1q-6 3-13 3l5-8 3-2 2-2 2-2 5-5q0 5-4 8l-1 4 9-7 10-13 1-2z"/><path fill="#F7FAFC" d="M2063 1193q0 6-5 10l-1 2-5 7-2 2-42 58-2 2h-1v-9l7-8 13-15 1-3z"/><path fill="#C2CEDE" d="M906 497v4l-5 3-8 12-1 2-5 9q-4 0-6-3l-1-2-2-2c-3-5-3-5-3-8q3-8 9-12l-1 3-2 10q7-2 10-8c9-10 9-10 15-8"/><path fill="#E9F3FA" d="m891 855 1 2-4 6-1 2a76 76 0 0 1-47 35l-25 1 1-2 8-1q29-4 50-23l4-2 1-2 4-6z"/><path fill="#285692" d="m846 314 1 3 4 1v2q-5 20 4 39l1 2-2 3-3-3v-2h-2l-1 2q-11-21-4-44z"/><path fill="#969798" d="M372 936q-1 5-5 10l-11 13q-5 6-14 8l-15 7q3-5 7-8l12-12-5 1-4-8 5 1 3 1 9 3 2-2z"/><path fill="#B2BDCB" d="m2054 1147 5 2-5 13-2 3q-11 19-24 38l-1 2-3 4h-2l8-19 2-3 19-29 1-7z"/><path fill="#F5F8FA" d="m2157 1232 3 3 1 3v3q0 5-6 8l-9 10-2 3-31 40q1-6 4-10l2-2 32-46 1-2z"/><path fill="#C9D4E4" d="M1341 543q0 6-4 10l-2 2q-12 21-29 37l-2-1 4-5-5 2-1 2-5 5-2 2-1 1q2-5 6-8l11-13c11-15 11-15 17-19l2 1 1-2 6-8 1-2z"/><path fill="#B4C0CF" d="m2464 1235 2 6-10 10-6 7-16 18q-7 9-18 15l6-9 10-10 18-22 12-13h2z"/><path fill="#F4F7F9" d="M2465 1243q5 3 5 8l1 4q2 4 1 10l-5 5-2 2-5 4-22 22q0-5 4-7l16-23 9-15h-8z"/><path fill="#FAFDFE" d="m1475 613 1 2-4 8-8 16q-13 1-27-3 2-6 6-10l2-2 8-9q-1 7-6 13l-2 7q8 1 12-3l7-7 2-2z"/><path fill="#F1F7FB" d="M1728 574q0 5-4 7l-19 24h12q-11 6-26 4h-2q-5 1-9-2h2q9-3 14-12l8-8-1 4-1 10 4-1 2-2z"/><path fill="#F9FCFD" d="M1954 487h1q0 8-7 15l-6 11q-7 15-21 26l-1-2q10-21 26-38z"/><path fill="#969798" d="m444 952 8 4 10 2-1 2h-4q-5 1-8 5l-2 2-10 10-6-5 7-11z"/><path fill="#A6A6A6" d="M317 1013q2 4-1 7l-1 3-1 2-2 5-1 3-1 5q-2 4-7 7l-2 2-5 3q-1-10 3-18l3-2 2 1 1-2q2-5 6-9l1-2z"/><path fill="#F3F7F9" d="m2055 1190 1 2-35 48-13 17h-1v-9l1-6h3q6-1 9-6l1-2 11-15 13-17 1-2z"/><path fill="#EFF6FA" d="M2425 1162h2l-7 9-1 1-27 28-16 21-34 43-4 3c7-16 21-30 33-44l3-5a566 566 0 0 1 49-53z"/><path fill="#B9C7D8" d="m1930 386 3 2v3l2-2 2-1 3 1-2 2-2 2-3 3-3 6-4 3-7 7q-2 4-5 3h-2q1-9 7-16l2-2 5-6 2-3z"/><path fill="#295794" d="m1222 633-2 4-7 1 5 1v1l-19 1h-4l-25-2v-1h3l8-2v-2h15l18-1z"/><path fill="#F5FAFD" d="M1223 599q1 4-2 7l-1 2-1 2-3 5-1 2-3 6h-27l14-16 3-4 2 1-2 2-2 4-2 3q-3 4-3 9c11-3 20-15 28-23"/><path fill="#989899" d="M292 1024q2 5-1 11v2q-2 7-4 7l-2 1-3 4-2 2-2 2-6 6h-5l2-5 1-3 1-3 3-1 5-6 2-2z"/><path fill="#969798" d="m393 929 4 1-2 5h-2l-1 2-5 9-3 5-4 6-13 1 6-8 2-3 2-2h2l1-2 4-5 5-6z"/><path fill="#FAFCFD" d="M1860 533h2q0 8-5 15l-1 2-3 5-1 2q-4 3-9 2h-7l14-16 2-2z"/><path fill="#36639F" d="M1957 450q3 4 2 10v5l3 1-1 3-1 7-1 5v2l-3 5zm6 4c5 5 3 15 3 22q0 19-10 36v-4l1-3 1-3 1-3q5-15 3-31z"/><path fill="#F1F6FA" d="m1670 583 1 2-3 8-1 2-3 5h2l2 3h5l6-8 5-6 4-4-5 13-4 9q-10 1-21-3l-2-4 5-7 2-2 1-2 2-1z"/><path fill="#F3F8FC" d="M1929 259q16 9 22 25-1 6-6 11l-1-2 2-5 1-8q-9 2-16 8l3-7q3-6 2-13-6 1-10 4z"/><path fill="#DCDCDC" d="M468 1055h1q-1 33-24 55-10 11-24 18l-2-1 2-1q37-25 46-69z"/><path fill="#F9FBFC" d="m2474 1285 3 1v13l-10 5-3 1-3 1-3 1-5 1 6-9 3-2 3-3 2-2z"/><path fill="#F9FCFD" d="M1003 527v5l-1 2-1 2-2 3-1 2c-6 11-6 11-11 13l-11 1q12-15 27-28"/><path fill="#FAFAF9" d="m437 947 2 1q-1 7-6 13l-1 2-4 5-12-4q2-4 6-7l9-8z"/><path fill="#F5FAFC" d="M898 431q-6 12-16 20-9 8-11 21v4q0 4-3 7-2-2-1-6c0-14 4-22 14-32l1-1c12-13 12-13 16-13"/><path fill="#F8F8F8" d="M393 935h2l-1 2-3 7 9-3-4 9-1 5 5 2v1l-20-1 6-12 2-3z"/><path fill="#F1F5F8" d="M2316 1333h2q3 6 1 12l-8 7-8 8-7 8-17 19q0-5 5-9l25-32 1-2z"/><path fill="#F7FAFD" d="m1614 563 2 1-1 2-1 3-2 3-2 7q10-2 16-10l3-3 2-2-5 13-4 10q-6-1-11-5l-3-2-5-5 3-2z"/><path fill="#154480" d="M1458 76h3l5 1 6 1h5v1h-18v2l-20 4h-5l-3 1h-7v-3l11-4 2-1z"/><path fill="#F8FBFD" d="m1843 530 2 1-1 2-5 10-2 3-2 3-2 3-2 6h-6l-5-1q9-16 23-27"/><path fill="#BCCCE1" d="m1779 556 1 2c-6 15-20 31-35 37l-2 1q3-6 7-9l2-2 7-7z"/><path fill="#F9FAFA" d="M2318 1385h1v16l-8 4-2 1-11 4 15-19 2-2z"/><path fill="#F7F7F7" d="M430 932c0 8-13 19-18 25l-4 3-6-1q5-8 12-15l3-2z"/><path fill="#1E4E8B" d="M1498 81v2l-18 1h-3l-27-1q4-2 9-2v-2q20-3 39 2"/><path fill="#363739" d="M2152 1349h1v20l1 25v13h-2l-2-18-2 3c-3-3-2-13-2-18v-19h1l1 14h1z"/><path fill="#F5F9FB" d="m437 1163 2 1q1 5-2 9l-2 2-2 3-9 9-9 10-15 17q2-6 6-10l26-34 1-2 2-1z"/><path fill="#F8FBFC" d="m2343 1190 2 1-1 2-2 4-2 1-20 32-2-1c1-6 1-6 3-8l2-5q2-5 7-11l8-10z"/><path fill="#0D4B96" d="M1245 97h10l30 2v2h-54l4-2 2-1z"/><path fill="#F0F5F9" d="M2461 1231h2l1 6-6 5q-10 9-18 20l-19 20 1-2 2-2 2-3 27-34 4-5 2-3z"/><path fill="#161616" d="M2273 1098q15 4 22 18v2l-3 1-4-7-25-12-6-3q8-3 16 1"/><path fill="#C3DDF2" d="m1346 592 9 8q26 23 57 33l5 3c-26-3-53-20-70-40z"/><path fill="#E2E2E2" d="M2305 1166h1q3 28-16 49l-9 8-2-1 1-1c15-14 22-35 25-55"/><path fill="#184A89" d="M1687 112h27l-4 3 6 1v1c-40 0-40 0-45-3q9-2 16-2"/><path fill="#F8FBFD" d="m1081 549-5 11-7 15q-5-2-8-7v-4l4-3 12-10z"/><path fill="#F7FAFC" d="m1090 560 1 2-2 6-6 14-3 3-6-2-2-5 5-6 2-2 2-2 2-2z"/><path fill="#F1F6FA" d="m2149 1210 3 1v4h-2l-1 2-7 9-3 3-1 2-21 26-2 3-1 2-6 6q3-7 8-13l1-2 14-18 8-11 2-2z"/><path fill="#F1F2F1" d="m455 927 2 2q0 5-5 8l-2 2-1 1-2-1 2-2 2-5q-5 1-9 4l-2 1-2 2-3 2-5 4q1-5 4-9l1-2-1-3c5-5 15-5 21-4"/><path fill="#161616" d="m2325 1405 6 2 1 3c-9 4-9 4-13 4l-13 4-10 2v-4l2-1 7-2 3-1 10-4 7-1z"/><path fill="#C6D2E2" d="M1742 582q0 6-5 10l-1 2q-5 8-14 11h-3l-2 1q7-12 17-22l2 1v3h2l1-2z"/><path fill="#DCDDDD" d="m2157 1403 18 5 35 10v1a143 143 0 0 1-39-7l-14-4z"/><path fill="#BFC0C0" d="M2445 1175q6 5 9 12l1 2c9 16 20 39 19 57q-3-3-3-7l-1-3-1-3-6-18-1-2-15-32-1-2z"/><path fill="#F8FBFD" d="M460 1253q4 4 2 10l-10 10-17 19-2-1 1-1z"/><path fill="#E3F2FA" d="M1860 1095q6 2 11 6l23 12 33 16q-5 2-8-1l-3-1-3-1-4-2c-17-7-36-15-49-29"/><path fill="#CEDAEA" d="m1970 454 5 1q3 13 0 26v2q-1 11-6 21h-2l1-3q6-23 2-47"/><path fill="#F1F4F6" d="M2038 1202q0 4-3 7l-1 2-2 2-15 20q-3 5-6 5 1-10 7-18l4-2 5-4 2-3 2-2 2-2z"/><path fill="#FBFCFD" d="m2301 1390 1 2-2 4-1 2-2 2-3 5-1 2-2 6q-7 3-14 2l15-16 3-3z"/><path fill="#F2F9FC" d="M395 1399h1v11c0 8 0 8-2 10l-6 1h-6l8-14 1-2z"/><path fill="#979798" d="M286 1050q2 7 0 14l-10 11-4 4v-10l3-3 2-3 2-3z"/><path fill="#356199" d="M1688 111q25-1 49 4c-5 4-7 5-14 5l-4-1h-2q-4 0-7-3l-1-2 3-1-24-1z"/><path fill="#F2F2F2" d="M293 1014h2q-1 12-10 20l-4 5-2 3-6 8-1-4 3-5v-3q2-6 6-9 6-3 10-9v-4z"/><path fill="#98999A" d="m472 1002 10 3 3 1q3 0 5 5h-23l-2-5q3-5 7-4"/><path fill="#C4D1E1" d="M1295 571q0 5-3 8l-2 2-2 3-3 3-5 7 2 2-2 2-2 3-3 3-5 8q-4 2-10 3l4-7 2 1z"/><path fill="#174A8C" d="M1626 129v2l-4 3q-5 3-8 9l-7 5-6-1-4 1v-3l4-3 2-1 3-2 3-2c13-8 13-8 17-8"/><path fill="#EFF5FA" d="m2240 1250 2 3a592 592 0 0 1-47 56l-2-1 2-2 22-26 2-2z"/><path fill="#B9C4D1" d="m2328 1361 4 4 1-4 1 3q1 4 4 7 3 2 2 5l-5 12h-2v-3l1-4v-3c0-5 0-5-4-9l-1 28h-1z"/><path fill="#F4F7FA" d="m2210 1253 1 2-13 15-9 10q-4 6-12 11 2-7 6-11l2-2z"/><path fill="#F2F6F9" d="M2185 1325q0 5-5 9l-2 2-18 19h-1v-9q0-3 2-5l6-1v2l3-2q3-4 5-3v-2l5-4z"/><path fill="#F6F6F6" d="M461 959v2l-2 1q-5 4-8 9c-5 8-5 8-9 10l-4-3q1-5 5-8l8-7q2-3 5-4z"/><path fill="#F3F4F4" d="m383 928 2 1-25 29-6 4h-2l13-15 7-9q4-6 11-10"/><path fill="#507DB5" d="m1438 708 4 11v2l4 25h2v-5h1l1 14-2 1 1 17q-3-5-3-10l-1-4v-4l-4-23-1-3z"/><path fill="#E5E5E5" d="m2181 1207 3 3q24 19 54 23v1q-29 2-51-19l-6-6z"/><path fill="#C2D1E4" d="M1953 494v7l-1 2-1 2q-2 12-12 20l-1-2-2 1 1-2 3-6q4-12 13-22"/><path fill="#F7FAFD" d="m878 477 1 2-1 2 4 1-4 9q-4 6-5 11h-2l-1-9v-3q0-4 3-8h2l1-2z"/><path fill="#E4E5E5" d="m441 1150 4 8 2 3 1 2 6 17 1 2 3 9v5l-3 4z"/><path fill="#939495" d="M281 960q0 8-3 15l-14-1c2-5 11-14 17-14"/><path fill="#F7FAFD" d="m1377 582 1 4-1 2-3 9-3 7q-5-1-9-7z"/><path fill="#F6FAFC" d="m1061 526 1 2-3 7-7 17q-4-3-6-8 1-4 4-7l2-2 2-2 2-2z"/><path fill="#F3F9FC" d="M1906 245q6 1 11 4l3 2q3 2 5 6l-9 8-1-8 1-3v-2h-7l-2 1-2 2-1 1v-5l1-3z"/><path fill="#D2D2D1" d="M2449 1038c8 7 10 20 11 29q1 11-4 21l-1-9q1-18-5-37z"/><path fill="#CED9E7" d="M1920 513q0 5-4 8l-3 3-7 7v-3l-19 19-1-3 4-4 3-3 5-4 7-7c5-8 5-8 8-10h4z"/><path fill="#ECEDED" d="M404 918q-1 6-6 11l-6 2-4 3-1 2-4 4-2 2-1 1 1-5 2-1 6-7-1-5 4-3 3-2q4-2 9-2"/><path fill="#FBFDFE" d="m1154 596-1 2-4 11-1 2-3 6h-5l-4-1h-2l-1-2 8-4 2-4 5-5 2-3z"/><path fill="#1A4C90" d="M1478 71h13v1h-10l-3 1c-9 0-9 0-17 2l-12 3h-3l-12 1 1-2 5-1 1-2q18-4 37-3"/><path fill="#A2BBDC" d="m1144 625 4 1 54 3v1l-22 1-1 2 2 1-26-4-3-1z"/><path fill="#F3F8FB" d="m1452 615 1 2-3 6q-4 5-5 12h9v2l7 1v1l-16-1-3-1-5-1q2-6 6-10z"/><path fill="#F5F9FB" d="M1404 595q1 4-2 7l-1 2-1 2-1 2-5 9-6-1-2-3 1-2h2l2-4h2l1-2q2-4 6-6l2-2z"/><path fill="#F7FBFD" d="M1822 533v6q-1 5-6 10l-3 6-7-1q0-4 2-6l2-2 2-2 1-2z"/><path fill="#D5E5F2" d="m1695 117 28 1 2 1q7 0 13 3l-4 1v2l4 1q-4 2-9-1-17-5-34-7z"/><path fill="#EAEBEA" d="M375 973h18q-11 8-25 6l-6-3q6-4 13-3"/><path fill="#F0F0F1" d="M319 963q1 3-3 6l-7 7-1 1-11 13-2 2-10 9-3 3-3 2 6-8 16-18 3-3 4-2 1-2q2-4 6-6l2-2z"/><path fill="#F5FAFD" d="M1536 596q0 5-4 8l-12 15-2 2-4 8q-3 3-8 2l7-9 8-10z"/><path fill="#F3F8FB" d="M390 1241q0 4-3 7l-2 3-2 3-5 5-2 3-10 14q-4 6-9 7 8-15 20-27l10-12z"/><path fill="#BEDCF1" d="M1262 101q31 1 57 16l1 2-11-4q-23-9-47-13z"/><path fill="#1F508D" d="M1554 104c10 3 17 14 23 22l1 2-1 3-8-9q-3-5-9-8-6-2-6-5z"/><path fill="#F4F8FA" d="m2130 1286 2 1-1 1-18 26-1 3-4 6h-7l26-33z"/><path fill="#EEF4F9" d="M2087 1281q0 4-3 7l-1 2-2 3-4 5-2 2-6 8-1 3-4 4q-3 7-7 7l-4-2 2-1q16-16 29-35z"/><path fill="#F1F6FA" d="M1958 337h1v8l-3 1-8 8-9 9-3 4h-2l-1 2q-1 4-6 6l8-11 3-3 1-2z"/><path fill="#999A9A" d="M372 936q-1 5-5 10l-4 3-1 2-8 10-2 2h-3l4-8-2-1 3-3 6-5z"/><path fill="#949697" d="m484 976 2 1q-1 7-6 12l-1 2-3 5-3-2q-2-6 1-10c6-8 6-8 10-8"/><path fill="#B2C3D9" d="M1944 398h3l3 4 5 8q3 5 2 12-4-3-6-8l-7-9-2-2q0-2 2-5"/><path fill="#F1F5F8" d="M342 1187q0 5-4 8l-12 17-8 9q-1-7 4-13l4-4 5-6 6-6 2-2z"/><path fill="#E7EFF6" d="M442 1176q0 5-4 9l-5 6-11 12-9 12-5 4q7-13 19-23c5-6 5-6 7-13q0-4 2-6z"/><path fill="#D1D2D1" d="m2330 1036 1 2-2 4q-10 22-7 45c-6-8-4-23-3-32q3-10 11-19"/><path fill="#B0C3DA" d="M858 475h1v2q-1 23 8 42l1 4h-6l-1-6-1-3q-2-8-2-17v-22"/><path fill="#F6FAFD" d="M1364 575h2l-1 3-3 10-1 4-1 3-9-7v-2l5-5 3-2 5-2z"/><path fill="#D2E6F4" d="M852 315v8q-1 18 5 35v5c-8-15-11-27-7-44z"/><path fill="#F6FAFC" d="M1388 591v6l-2 5v2l-1 2-1 2-3 3-5-2-2-3z"/><path fill="#F8FBFC" d="M1642 575q1 5-1 9l-2 3q0 3-4 5h-8l-2-3 3-2q9-5 14-12"/><path fill="#BCD7F0" d="M1964 458h1q6 29-9 54v-4l1-3q6-18 7-37v-10"/><path fill="#040404" d="M2231 1096h3l14 1v1h-4q-18 0-34 7h-6l5-3 2-2q10-5 20-4"/><path fill="#D6EAF5" d="M1760 883q16 3 25 17l8 12-1 3-2-3a105 105 0 0 0-30-29"/><path fill="#C6D4E4" d="M1955 299q4 3 4 8v11l-3 1 1-7q-4 1-7 5v-4l-3 2 5-10 2-4z"/><path fill="#335E96" d="m967 242-2 1-3 3h-9l-20 3h-6l1-3q20-5 39-4"/><path fill="#E9EAEA" d="M394 964v2h-2l-43 4c32-10 32-10 45-6"/><path fill="#2563B0" d="m1608 131 3 1-1 2 2 2q-8 6-18 8l-1-4 6-4 2-1z"/><path fill="#EBF2F8" d="M2274 1354q-1 5-5 10l-4 3-1 2-17 21-2 1q-4 6-7 6 2-5 6-8l4-5 3-3z"/><path fill="#FAFDFE" d="m1069 539 1 2-5 9-1 3-1 2-2 2q-1 3-5 3l-2-5z"/><path fill="#F0F0F0" d="M346 954q-6 10-16 16l-6 7-3 1 7-9 8-10q4-5 10-5"/><path fill="#D5DFEC" d="m1034 528 2 1-2 1-1 2-2 2q-2 2-2 5l-6 3-4 2-6 1 5-9 2-2 1-2 3 1-1 5 4-3 2-2z"/><path fill="#BBD6ED" d="M663 929q0 5-5 9-13 16-25 34l-5 6q2-6 6-11l1-2q12-20 28-36"/><path fill="#202223" d="m2351 1323 10 1 3 1h6l4 3h5l3 1h15v1l-33 1-1-3h-4l-8-3z"/><path fill="#F4F7F8" d="m2473 1269 2 1v9h-2v2l-4 3-9 10-2-1z"/><path fill="#7A7A7A" d="m2157 1062 3 8 2-2v15h-2l-6 19v-10z"/><path fill="#B9CAE0" d="M1775 575q2 6-2 12-4 9-13 14 1-6 5-11v-3l4-4z"/><path fill="#F5FAFC" d="m1655 581 2 1-1 2q-4 7-6 16l-9-2q2-6 8-10z"/><path fill="#F7FAFD" d="m933 532 1 2-4 8-1 2-4 8-7-1 1-5 2-1z"/><path fill="#F0F6FA" d="M351 1167q0 5-5 9l-8 10-15 18-1-3 2-2 8-10z"/><path fill="#EEEEEE" d="M295 977q-1 6-6 10l-1 1-19 16-2-1z"/><path fill="#E4F1FA" d="M1738 605q1 4-2 7-4 3-9 2h-15l9-4 3-1 3-1 3-1z"/><path fill="#9D9EA0" d="m337 947 14 5v2l3 1-4 5v-3l-4 2-2-2 2-3-5 1zm11 12 1 4-4 1z"/><path fill="#E5F2FB" d="m1255 624-16 6h-2q-8 3-17 3v-2l2-1-1-2h3q13-1 25-5z"/><path fill="#B9C3D0" d="m344 1143-5 10-2 4-2 3-3 5q-1-6 2-12l1-3v-3l1-2q3-5 8-2"/><path fill="#171717" d="m2030 1034-7 13-4 8-1 3-3 1q1-8 4-15l1-2q4-8 10-8"/><path fill="#F8F8F8" d="m473 958 5 1-12 10-2 1-2 2-1 1-5 3c3-8 8-18 17-18"/><path fill="#DAEAF7" d="m1965 343 1 4h2q2 8-3 15c-5 10-5 10-8 11l1-2 4-15 1-4z"/><path fill="#F4F9FC" d="M1959 320h1q1 5-2 10l-3 3-2 2-3 3-6 7-3 4q0-5 3-7l2-3 2-3 4-5 1-3 4-6z"/><path fill="#2F5E9A" d="m969 643 4-1v2l-6 3-3 2-6 1-1 3h-3v-7l7-3z"/><path fill="#3966A1" d="M1530 622q-1 5-5 8l2 2-6 3-3-1 4-1v-2l-18 2 10-5 11-5z"/><path fill="#AAABAB" d="m2472 1307 2 1q-18 14-41 14l7-3 3-1 2-1z"/><path fill="#303030" d="m1992 1278 1 3h2v11q1 7-3 13h-2q0-13 2-27"/><path fill="#F2F4F6" d="m2174 1318 1 2-5 7-1 2-8 9v-4l1-3q0-5 4-8l3-2 3-2z"/><path fill="#F0F6FA" d="M390 1227q1 4-3 6l-1 2-2 3-4 4-1 2-8 9-5 4-3 2 6-9 3-2 2-3 4-4z"/><path fill="#D2D1D1" d="m502 1135-2 1-39 20-3-2 28-14 2-1 5-3 3-1z"/><path fill="#D5D5D5" d="m2021 1096 5 8q5 12 12 22l4 6c-10-4-15-16-19-25z"/><path fill="#D7D7D7" d="M2343 1160q1 4-2 7l-2 2-1 2-14 23q-1-5 1-8l1-2 2-3q6-12 15-21"/><path fill="#9E9E9F" d="m444 995 10 12v2q-9-1-15-7l2-1z"/><path fill="#F4F4F4" d="m465 976 2 1-12 17-4-4q3-5 8-9l3-2 2-2z"/><path fill="#D1E8F7" d="m1346 592 12 11 16 12-1 3q-16-9-27-24z"/><path fill="#A1BBDA" d="M1832 571h30l-3 4-4-1v-2h-2l-1 2-3 4-4-1-1-5h-12z"/><path fill="#B4C0CE" d="M2073 1154h19v1h-14l-2 5-5 8-2 2-1 2-2 2-4 1 8-11c3-3 3-3 3-10"/><path fill="#4B76AF" d="M1024 633v5l-1 2-1 3-2 3-1 2-4 7-3-4 2-6 1-2 5-7h3z"/><path fill="#F9FDFE" d="M1180 630h23c-6 5-6 5-9 4h-7l-8-1z"/><path fill="#355B92" d="m1011 622 1 3-7 4-2 1-11 4-1-4 8-4 3-1 2-1 2-1z"/><path fill="#D2E4F4" d="M1065 155h8q-6 4-12 4l-3 1a26 26 0 0 1-15-1h-2l4-1 2-1q9-2 18-2"/><path fill="#F5F8FA" d="m340 1167 1 2-5 8-2 2-8 10 1-8 1-4 2-1z"/><path fill="#171717" d="M2115 1003c21 7 21 7 25 16l-3 1-6-5-17-10z"/><path fill="#F9FDFE" d="M973 541q-3 9-9 16h-7l8-10 2-2q5-5 6-4"/><path fill="#C0C8D1" d="M2476 1286h1v13l-10 4 5-11 1-2z"/><path fill="#F1F5F8" d="m463 1269 2 1q1 5-2 10l-8 8-5 6-2-1 2-2z"/><path fill="#B6B7B8" d="m386 941 2 2-3 5-1 3-4 6h-7z"/><path fill="#F3F8FB" d="m1411 607 1 2-3 7-1 2-2 5-8-2 6-8z"/><path fill="#C4D0E1" d="m1272 576 2 1-29 35-1-3 9-10 1-2z"/><path fill="#F0F7FB" d="m1614 563 2 1-1 2-1 3-2 3-2 7h5l-1 4q-6-2-11-7l2-2z"/><path fill="#F7FBFD" d="M1054 513q1 4-2 7l-2 1-1 3-3 4-1 1-2 4-7 1 5-7z"/><path fill="#8EB0DB" d="M1094 163c22-1 22-1 29 3l1 2h-6l-3-1-16-1h-3z"/><path fill="#DDE2E6" d="m2207 1248 2 2-2 2-2 2-3 3-4 5h-2l-1 2q-2 4-7 6 2-5 5-9l2-2 3-2 2-2z"/><path fill="#EFF5FA" d="M2440 1183q1 3-2 5l-3 3-14 14-6 4-5 4 7-9 2-2z"/><path fill="#F6FAFC" d="m1876 540 1 2-2 5-2 2-1 3-2 4-1 2h-7q6-10 14-18"/><path fill="#505153" d="m2325 1405 6 2 1 3c-10 4-10 4-13 3v-3l-3-1q4-2 9-2z"/><path fill="#F4F8FB" d="M1439 611v4l-1 2-1 3-1 2-1 3-3 6h-5l4-9 2-3z"/><path fill="#D1E4F4" d="M1468 76h16l17 1v1h-5v2l-28-3z"/><path fill="#EBEBEC" d="m444 952 5 2q-1 5-6 7-7 5-11 11 0-6 5-10l3-4 1-1z"/><path fill="#F9FCFE" d="m1489 618 1 2-4 6-6 12h-7q3-6 9-11z"/><path fill="#D6E3F1" d="m870 458 3 2v2l-2 14q0 4-3 7-2-2-1-6 0-9 3-19"/><path fill="#3F6493" d="M774 899h7v2h4l18 2 10 1 1 2q-21 0-40-5z"/><path fill="#BCCBDD" d="m1159 636 11 2-2 1-1 2-4 5-5-1z"/><path fill="#194986" d="M1454 644h20l6 1 5 1v1h-31z"/><path fill="#315C94" d="m1514 73 3 1h-2l1 4 7 1v3l-4-1-25-4v-1h2l18-1z"/><path fill="#DFE0DF" d="m2445 1175 10 13 1 2c5 9 5 9 5 14h-2l-6-12-2-3-1-3-2-3z"/><path fill="#F5F9FC" d="m1354 566 1 2-2 5-2 2-1 3-2 4q-4-1-6-6l2-1z"/><path fill="#A2B8D5" d="M1972 467h1c2 22 2 22-2 32l-1 3-1 2h-2l1-3q4-17 4-34"/><path fill="#F9FCFD" d="M1805 534v6l-2 4-1 2-3 4h-5q0-4 2-6l2-3z"/><path fill="#F0F5F8" d="m436 1258 2 1-5 5-2 3-13 11-6 5c3-8 12-14 18-20z"/><path fill="#EEF4F9" d="M2063 1193q1 4-2 7l-2 2-1 2-2 2q-4 9-13 12l13-17 2-2z"/><path fill="#F1F5F8" d="m2435 1175 4 2q-1 5-6 9l-2 2-7 4z"/><path fill="#406CA7" d="M1009 631h4v3l-5 4-3 3-3 2-5 4-2-1 11-11z"/><path fill="#BAC6D4" d="m415 1190 1 3-4 6-3 3q-2 3-6 3l-4 3 7-10 1-2z"/><path fill="#8D8D8D" d="m279 1065 1 6-7 8-2-4q0-9 8-10"/><path fill="#234F89" d="m919 258-3 2-5 2-2 1-10 5q-3 3-7 2v-2c21-12 21-12 27-10"/><path fill="#D0E5F4" d="M993 203h4l-4 12-5 15h-1q0-7 2-15l1-3z"/><path fill="#224B80" d="M1459 81h9l9 1 5 1h4v1l-36-1q4-2 9-2"/><path fill="#F4F9FC" d="m894 510 1 2-8 15-4-1-2-4 2-1z"/><path fill="#F2F7FB" d="M2183 1290q0 4-3 7l-2 3-1 2-2 3-5 6h-2l1-7h3l1-2 6-8 2-2z"/><path fill="#C4DCEF" d="M1860 1095q6 2 11 6l17 9-3 3-9-6-3-1-13-10z"/><path fill="#CEE0F1" d="m912 413-2 1q-12 8-23 18l-3 2q0-3 4-7l5-4c14-12 14-12 19-10"/><path fill="#ECF3F8" d="M360 1188q0 5-5 9l-2 1q-6 9-15 14l7-9 2-2z"/><path fill="#31598D" d="m1498 81 3 1h-2l1 5 3 1q-4 2-10 0l-4-1-2-1-8-1v-1l19-1z"/><path fill="#EEF0F2" d="m2465 1243 4 4 1 7-3 1v-2h-8z"/><path fill="#215398" d="m1540 624-10 7h-6l2-4h2v-2q5-3 12-1"/><path fill="#DAE2EE" d="m1006 531 2 2-1 2-6 7-2 2-1 2-2 2-1 4-5 1 6-11 3-5 4-1z"/><path fill="#727374" d="m2328 1361 4 4 1-4 1 9-4-1-1 28h-1z"/><path fill="#E8F0F7" d="M2200 1292q0 5-4 8l-12 14-7 6q9-16 23-28"/><path fill="#868686" d="M2398 1001v1h-27q13-6 27-1"/><path fill="#F1F6FA" d="m903 522 2 1-2 2-2 3-2 3-4 5-5-2q3-5 8-8l3-2z"/><path fill="#375F92" d="M1603 328h1q1 21-2 42h-1v-24h1z"/><path fill="#929394" d="m464 996 4 1v2l4 2c-4 4-4 4-9 4l-2-4z"/><path fill="#3965A0" d="M1432 687q2 6-1 11l-1 4-1 3h-1l1-9h-1l-1 5h-2q0-7 3-13l4 1z"/><path fill="#B3D2ED" d="M1863 226q18-1 35 7-5 1-10-1l-25-5z"/><path fill="#232424" d="M2146 1355h1l1 14h1l1 9-1 5-2 1-1-9v-20"/><path fill="#CBCBCA" d="m2211 1227 2 1 25 5v1q-14 2-27-4z"/><path fill="#F4F4F4" d="m275 965-2 9h-9q3-7 11-9"/><path fill="#27548F" d="M1445 727q5 7 3 15v4l-3 1-1-6-1-4v-8z"/><path fill="#2D5F9F" d="m1821 203 4 5v6l-2 6-1 5v4h-1l-1-10v-9z"/><path fill="#191A1C" d="M2150 1386h1q3 12-1 23l-2 2v-12q0-6 2-13"/><path fill="#3F3F3F" d="m2149 1038 7 10 1 2q3 4 3 10l-3-6 1 8-2 1-1-4-1-4v-2l-5-13z"/><path fill="#F1F7FB" d="M1341 543q1 4-2 7l-1 2-2 2-1 2-7 10-3-1z"/><path fill="#F3F9FC" d="m1182 607 1 2-3 7-1 1-3 5h-7zM956 539q0 6-4 10l-1 2-4 5h-6z"/><path fill="#EBF5FB" d="M1734 123q8 0 16 3v3q-9 0-16-4z"/><path fill="#EFF5FA" d="m2079 1306-2 6v3l-4 5-1 3h-6z"/><path fill="#EFF3F7" d="m2421 1152 4 4v3l-5 4-3 2-5 4 5-8z"/><path fill="#C2D9F1" d="m1144 625 11 1 4 1h3l3 1 4 1v2q-13 1-25-5z"/><path fill="#F3F9FC" d="m1344 554 1 2-2 4-4 12-3-3q0-4 2-9l2-2 2-2z"/><path fill="#BBC8D5" d="M477 1262q5 2 7 7l-1 4-5 3z"/><path fill="#1B1B1B" d="m2342 1016 2 1-2 2-5 6-5 5h-2l-3 3-3 2c3-8 12-14 18-19"/><path fill="#9E9FA1" d="m312 961 2 1-7 7-2 3c-5 5-5 5-9 6h-3l3-6h3l1-2 1 2z"/><path fill="#C8D3E1" d="M948 570h10l-6 7h-4z"/><path fill="#EFF6FB" d="M1602 557q1 5-1 9l-1 3-1 2-4-2-1-3 3-4 2-2z"/><path fill="#C8DFF3" d="m837 897-3 1 4 2-23 1 1-2 8-2h13"/><path fill="#EBF3F9" d="M1742 582q0 6-5 10l-3 4-1 1-3 5-4-1 2-3 3-3 2-2z"/><path fill="#ECF3F9" d="M2190 1342q0 5-5 9l-3 3-2 1-7 9-3 2 7-10 2-2z"/><path fill="#C1C3C2" d="M469 1244h1l2 31h-1q-4-15-2-31"/><path fill="#D0D0D0" d="m374 965 3 2h-2l-19 3h-7c21-6 21-6 25-5"/><path fill="#F3F9FC" d="m1013 534 2 1-2 2-2 3-2 3-3 6-7 1z"/><path fill="#CAD5E4" d="M881 473h2v4l6-2q-2 6-7 8l-4-2 1-6h2z"/><path fill="#184988" d="M951 243c18 0 18 0 27 2v2h-8l-8-1v-1l-11-1z"/><path fill="#F4F5F5" d="M408 937h7l-13 14 2-7z"/><path fill="#BAD7F0" d="M1262 101q9 0 17 2h2l6 1v3l-25-5z"/><path fill="#F0F5F9" d="m1555 600 4 2-6 4v-3q-8 1-13 8l-1 1-4 4q1-6 6-10 5-5 10-5l4 1z"/><path fill="#CFE3F4" d="M1592 576h2v2l1 2 5 2 6 5-2 1-7-3-1-1-5-3z"/><path fill="#8FABCF" d="m1944 398 1 3 4 6 7 10-1 4-1-2q-4-8-11-14l-1-4z"/><path fill="#1D4D8A" d="m1845 223-1 2 15 1v1h-27q6-5 13-4"/><path fill="#1A549F" d="m1619 127 1 4-8 5-3-2q1-4 5-6z"/><path fill="#BAD6F0" d="M1695 117h10l14 1-2 3-9-1h-5l-2-1z"/><path fill="#A4A6A6" d="m2008 1315 2 1 26 8v1l-20-4-2-1-7-2z"/><path fill="#D0D9E4" d="m2464 1241 3 1-4 6-1 2-2 2h-3l-3 3-3 2 8-10 1-2z"/><path fill="#F1F5F8" d="m2430 1166 3 1q-1 6-6 8l-2 2-2 2-2-1z"/><path fill="#747676" d="M441 1150q4 5 6 12l1 2q4 7 2 14l-4-8-1-3-1-3-1-3z"/><path fill="#EDF4F9" d="M1131 601v4l-1 3-1 3-1 2-7-1-1-2 3-2z"/><path fill="#ECF3F8" d="m1154 596-7 10-10 10-4-1 8-5 2-4 5-5 2-3z"/><path fill="#C1CAD5" d="M439 1167q3 4 3 9l-3 1-6 4-1-4 3-4z"/><path fill="#F0F6FB" d="M915 532q0 5-3 8l-2 3-2 2-5-2q1-5 7-7z"/><path fill="#EEF5FA" d="m883 500 1 2-2 4-4 11-3-3q1-7 7-13z"/><path fill="#496FA3" d="M1957 455h1v18l3 1-1 5-1 3-3 6z"/><path fill="#BFC9D6" d="M2200 1394q0 5-4 8l-2 3q-2 3-5 2h-3l3-1 1-2q2-5 6-7l2-2z"/><path fill="#9E9E9E" d="m327 1012 2 1-3 7-3 1-2 4-1 2-1 2v-6l2-3 1-3z"/><path fill="#EDEDEE" d="m483 960 4 1-2 6c-4 4-4 4-8 4l4-6z"/><path fill="#D1DAE6" d="m1827 535 1 3-4 6-2 3q-2 4-6 5l-3 3 3-8 2-2 1-2h3l3-4 1-2z"/><path fill="#E7F1F9" d="M1945 276q5 3 6 8-1 6-6 11l-1-2 2-5 1-8-4-1h2z"/><path fill="#E7EFF6" d="m334 1206 3 1-1 1-13 16-4 3 5-8 1-2 2-2 2-2z"/><path fill="#EFF5FA" d="M901 457h2zl-5 5-10 10q1-6 6-10l1-2c4-4 4-4 8-4"/><path fill="#296DC0" d="M1602 138h5q-6 5-13 6l-1-4q4-2 9-2"/><path fill="#1A4884" d="m1567 115 8 9 2 2 1 2-1 3q-6-5-10-12z"/><path fill="#E3ECF5" d="m2093 1261 1 4-3 4-1 2-2 3-2 2-9 10q2-5 6-11z"/><path fill="#E7EFF6" d="M414 1194h2q-1 6-6 10l-2 2-8 8q2-5 6-11l7-7z"/><path fill="#F7FAFC" d="M442 1176q1 4-2 6l-5 4-1-7q3-4 8-3"/><path fill="#EAF6FD" d="M1210 629h13l-1 2h-2v2h-11z"/><path fill="#E8F0F7" d="M1536 596q0 5-5 9l-1 2c-6 7-6 7-11 9q2-5 6-8z"/><path fill="#C9D7E8" d="M1953 494v7l-1 3-3 3-1-2-4 4q2-8 9-15"/><path fill="#305C92" d="M1812 567h3l23 2v1q-13 3-26-1z"/><path fill="#214E86" d="m1927 255 5 1v3h4l1 2q2 6 6 8l-1 2-3-3-3-3-2-2-2-2-2-2-3-2z"/><path fill="#EBF2F8" d="M390 1241q0 4-3 7l-1 2-2 2-2 2-4 6-2-1 5-7 1-2 2-2 2-2z"/><path fill="#EDF4F9" d="m2062 1204 2 1-14 17q1-5 4-10l2-1z"/><path fill="#EEEEEE" d="m300 1001 1 2q-3 7-9 11l-5 5-2-1 3-3 3-3 1-2z"/><path fill="#979898" d="M485 994q3 2 2 6-7 0-11-4 4-2 9-2"/><path fill="#D3E1EF" d="m1444 632 1 3h9v2l7 1v1l-19-2 2-1z"/><path fill="#97B1D5" d="M858 475h1v2l3 30-4-3v-29"/><path fill="#AFC7E7" d="M1957 464v18l-2 4v-18l-3-1q3-4 5-3"/><path fill="#D7E6F4" d="M1956 305h2l1 8v5l-3 1 1-7-4 1z"/><path fill="#245FA7" d="M1318 121q6 2 8 7l-1 3-10-6 2-1z"/><path fill="#BCCEE1" d="m1738 605-1 5q-7 4-14 1l9-4 3-1z"/><path fill="#BED4EE" d="M1775 575c1 4 1 4-1 8l-1 2-1 2-1-2h-2l-2 4-3-1 2-2 2-3 3-3z"/><path fill="#D0DCEA" d="m1942 419 4 1 2 6-9 1z"/><path fill="#0D3D7D" d="m1463 76 2 2-22 1 1-2q10-2 19-1"/><path fill="#232425" d="m2317 1409 2 1-1 4-8 2-1-4c5-3 5-3 8-3"/><path fill="#747575" d="m2363 1328 34 1v1l-33 1z"/><path fill="#3A6297" d="M1424 707h1v6l-1 1v4l-3 11h-2l1-9 1-2v-5z"/><path fill="#C4D0E0" d="M1844 572h9l-4 6-4-1z"/><path fill="#C9D5E7" d="m1048 571 6 7h-9l1-6z"/><path fill="#EEF4F9" d="M1900 537q0 5-4 8l-2 3h-2l-4 4-2 2-2 2 1-5 3-2 2-2 2-2 2-2z"/><path fill="#BCD7ED" d="M1959 287q6 6 8 13l-2 6-4-9v-2z"/><path fill="#E0E0E0" d="m2472 1307 2 1c-11 8-11 8-18 8v-2l8-4 2-1z"/><path fill="#242424" d="M2018 1046h4l-4 12-3 1q0-7 3-13"/><path fill="#BDBDBD" d="m301 1030 3 1q-1 6-6 11h-1q0-5 2-10z"/><path fill="#B5B6B7" d="M325 958h8l-3 3-1 2-6 4z"/><path fill="#174E96" d="m1825 213 2 1q1 9-5 16-1-9 3-17"/><path fill="#BFDBF3" d="m1786 148 10 8 2 2 4 4-1 2-1-1-12-11-2-1z"/><path fill="#CBCCCB" d="M2449 1038q4 3 6 8l1 3 2 8-3 1-2-8-1-2-1-2v-2z"/><path fill="#D8D9D8" d="m488 1007 2 4h-14l4-3z"/><path fill="#A8C6E6" d="M1255 624q-10 6-22 4v-1l9-2 3-1h3l2-1z"/><path fill="#10478B" d="M862 296q0 8-7 13h-2q2-8 9-13"/><path fill="#0A428A" d="M1626 129v2l-3 2-6 4-5 1q1-5 7-7l3-1z"/><path fill="#ECF3F8" d="M2303 1326q-1 7-7 11l-5 4 6-9 2-3z"/><path fill="#BED8EE" d="m1908 1121 13 5 3 2 3 1h-7l-3-1-2-1-3-1-6-3z"/><path fill="#949495" d="m436 987 6 5-2 3h-5v-6z"/><path fill="#C8DDEE" d="M1431 706q3 4 3 9v6l-3-3-2 1 1-8z"/><path fill="#EEF4F9" d="m987 533 2 1-14 15q0-5 4-8l2-3z"/><path fill="#4C73A2" d="M961 251h4l2 3-25-1v-1z"/><path fill="#E9EFF3" d="m340 1167 1 2q-2 6-8 8l-2 2-2 2h-2l1-4 5-3z"/><path fill="#EFF5FA" d="M1425 608q1 5-1 9l-1 3-6 4z"/><path fill="#E0EFFB" d="M1319 575q0 4-3 7l-2 2-8 8-2-1 3-4 2-2 2-2h2l1-2z"/><path fill="#F1F7FB" d="M973 541q-1 6-7 8l-8 8 1-5 2-1 2-2 1-2 2-2z"/><path fill="#EBF2F6" d="m1003 527 1 3h-3zm-5 4 2 1-13 13 2-6 4-3 1-1z"/><path fill="#EBF2F7" d="M2117 1214q0 5-4 9l-2 3-2 2h-3l7-9 2-3z"/><path fill="#CACBCC" d="m2330 1036 1 2-2 5-2 2-1 3-2 4h-2q0-7 5-11l2-3z"/><path fill="#496B95" d="M601 1023h1l1 14h5l-2 3-6-3q-1-7 1-14"/><path fill="#325D92" d="M1653 611h7l1 1 8 1 4 3c-13-1-13-1-19-3z"/><path fill="#22559C" d="M1561 608h2q-1 5-6 7l-2 2-8 4v-2l6-4z"/><path fill="#3F6698" d="M1614 598q9 0 16 3v2h4l1 3-21-7z"/><path fill="#C9D6E7" d="m1034 528 2 1-2 1-1 2-2 2q-2 2-2 5l-7 3 7-9 3-3z"/><path fill="#F6FBFD" d="m1933 407 4 1q-3 7-9 9 1-6 5-10"/><path fill="#EEF4F8" d="m1930 401 1 3q-5 5-12 9l6-8 1-2z"/><path fill="#C0E0FB" d="M1091 161q10 0 20 2v1h-18z"/><path fill="#CBE6FA" d="m1590 139 3 1 1 4 2-1 2-1 2-1 2-1 2 1-4 4-3 1-4 2z"/><path fill="#212223" d="M2330 1352h1l1 13-3-1-1-4v-3z"/><path fill="#E9F1F8" d="m2238 1248 2 2-2 2-12 13q1-6 5-10l2-1z"/><path fill="#C4CFDE" d="M396 1225q0 5-4 8l-2 3-2 2-2-1 2-3v-3l4-3 2-2z"/><path fill="#9CA3AD" d="M2073 1154h19v1h-14l-2 5-3-1z"/><path fill="#36629A" d="M1817 1033q3 3 2 7l-3 5-3-8z"/><path fill="#CFE6F5" d="M663 929q1 4-3 6l-1 2-2 2-2 2-4 5-1-2 4-5 3-3z"/><path fill="#EAF6FE" d="M1180 630h23v1h-20v2l2 1-6-1z"/><path fill="#C5D0DE" d="m1934 525 2 1-3 2zm-6 7q1 4-2 7l-7 1q2-3 5-5l2-2z"/><path fill="#EDF4FA" d="M1929 512q0 4-3 7l-1 2-9 7 8-10 1-2z"/><path fill="#A6BBD7" d="M863 514h2l3 9h-6z"/><path fill="#2E5D98" d="m851 351 4 6 1 2-2 5q-5-4-4-7z"/><path fill="#D3E8F3" d="M1286 105q9 0 16 4v1q-9 0-16-4z"/><path fill="#BCC8D8" d="M2109 1259v7q-2 4-8 6l5-9 2-2z"/><path fill="#BECBDB" d="m2115 1246 3 1q-1 5-6 9v-3l-3 2z"/><path fill="#E9F1F7" d="m2051 1239 1 4-7 9-4 4q0-4 2-6l2-2 1-2 1-2z"/><path fill="#B8D4EC" d="m891 855 1 2-4 7-2 2-3 5-3-2 1-2z"/><path fill="#3B65A0" d="m1222 633-2 4h-6v-2h-8v-1z"/><path fill="#F5FAFC" d="m1167 609 1 2-2 5-2 2-1 2-5-1 3-3 1-2z"/><path fill="#CAD4E0" d="m1711 596 3 3-5 6h-4z"/><path fill="#EFF5F9" d="m1069 539 1 2q-6 9-15 14l8-10 2-2z"/><path fill="#ECF5FB" d="M1954 487h1q0 5-3 10l-6 3 5-9 2-2z"/><path fill="#618DC5" d="M1124 167v1h-6l-4-1q-3 1-7-2 9-2 17 2"/><path fill="#E4ECF4" d="m2130 1286 2 1-12 16-2-2 2-2 2-3 3-3z"/><path fill="#EBF2F7" d="M2078 1216q0 5-3 8l-2 3-2 2h-3l6-9 2-2z"/><path fill="#30598B" d="m2617 910 3 1v1l-6 2v2l-3 5c-1-6-1-6 1-9q2-2 5-2"/><path fill="#426FAE" d="M1008 622h3l1 3-7 4-2 1-5 2-3-1 14-7z"/><path fill="#C3D0E1" d="m913 399 4 1-1 5h-5l-2-1h2z"/><path fill="#CDE3F3" d="M1961 360h3q-1 8-6 13v-5l1-3 1-3z"/><path fill="#CECFCF" d="M2445 1175q7 6 10 15h-3l-3-6-2-2z"/><path fill="#9C9D9D" d="m395 936 3 1-2 6-5 1q0-5 4-8"/><path fill="#D1E4F4" d="m1007 632 2 1-10 8-2-2v-2l5-3 3-1z"/><path fill="#AEC2DB" d="M1243 611v3h-3zm0 7-12 3 3-1 1-3q5-2 8 1"/><path fill="#3F6695" d="M1494 76h10l11 1v2l-21-2z"/><path fill="#EAF2F8" d="m2348 1251 1 4-5 6-1 2-4 4q0-5 5-10l1-2z"/><path fill="#B2B3B2" d="M2305 1166h1l-1 17h-2v-6l1-4z"/><path fill="#161717" d="m2156 1052 4 7h1v8l-3-1q-2-6-2-14"/><path fill="#F1F2F2" d="m291 993 1 2c-8 9-8 9-13 11l7-9 3-2z"/><path fill="#E0E1E2" d="M319 963q1 3-2 5l-2 3-3 2-2 2-2-2 6-6z"/><path fill="#426593" d="M1807 949h2l1 16-2-4-1-1v-11"/><path fill="#EFF5FA" d="m1805 534 1 3q-5 8-13 12 2-5 6-8z"/><path fill="#BDCBDD" d="M1952 407c5 5 5 5 5 8v7h-1l-1-2v-2l-1-3-2-3z"/><path fill="#ECF3F8" d="m327 1256 4 1-2 1-7 8-1 2h-3q2-5 6-8l2-2z"/><path fill="#E7EFF6" d="M2060 1252h2q-1 6-6 10l-2 2-2 2q1-4 4-9l2-3z"/><path fill="#E6EDF4" d="m331 1190 1 4-4 5-3 3-2 2-1-3 2-2z"/><path fill="#BDC8D6" d="m2351 1165 2 2-6 8-2-4z"/><path fill="#CACACA" d="M468 1055h1v6l-1 4q1 4-2 7h-2z"/><path fill="#9D9E9F" d="M382 949v6q-2 3-5 2h-2q3-5 7-8"/><path fill="#88898A" d="M363 943q0 4-3 7l-2 2q-2 3-5 2h-2l3-3 6-5 2-2z"/><path fill="#CADBF0" d="m857 460 4 1-2 14h-1z"/><path fill="#2B5890" d="m1402 291 2 1-4 4h-2v6l-2-1 2-9z"/><path fill="#DBEBF7" d="M395 1399h1v17h-1l-1-11-3 2z"/><path fill="#D9DADB" d="m2001 1312 7 3v2l-12-2v-1h5z"/><path fill="#EEF4F9" d="M454 1276q0 5-4 9l-4 1z"/><path fill="#CBD6E3" d="m407 1197 2 2-1 4-5 2-4 3 5-8 2-2z"/><path fill="#CDCDCD" d="M2343 1160q0 5-3 8l-1 2-2 2h-3q2-5 6-8l2-2z"/><path fill="#6B6B6B" d="m2115 1003 5 2 3 1 4 3h-5l-3-1-3-2-2-1z"/><path fill="#3061A3" d="m1535 623 5 1-10 7-3-1 2-1 4-4h2z"/><path fill="#275A9F" d="M1274 617v2l-5 2h-9c9-4 9-4 14-4"/><path fill="#C8D5E6" d="m928 567 11 1v1l-10 3z"/><path fill="#C1D6F0" d="m912 413-2 1-3 2-3 2-6 4v-3l5-4 3-2z"/><path fill="#365D91" d="M1273 411h4v2h12q-5 3-11 2l-5-3z"/><path fill="#3366A9" d="m1164 123 3 1c-4 6-4 6-8 7h-2l3-3 2-2z"/><path fill="#C5C8C9" d="m2157 1403 8 2-3 1v3l-5-1z"/><path fill="#E8F0F6" d="M2066 1207q0 5-3 8l-1 2-2 2h-3q2-5 6-8l2-2z"/><path fill="#CDCECC" d="m2181 1207 1 1 13 10-4 1-5-5-3-3z"/><path fill="#39639B" d="M1186 638q-6 3-14 2l-2-1v-1z"/><path fill="#F4FBFE" d="M1051 160q-2 2-7 3h-4l1-3q4-2 10 0"/><path fill="#B4BBC1" d="M467 1289h1l1 13h-3z"/><path fill="#A4ADB8" d="m334 1153 4 2-4 7-3 3z"/><path fill="#C8D9EC" d="M1202 629h8l-4 4h-6z"/><path fill="#EBF2F8" d="m1489 618 1 2-2 4-1 2-6 4-2 1 6-9 2-2z"/><path fill="#F2F7FB" d="m1475 613 1 2-7 7-2 2-2 1q2-5 6-8l2-2z"/><path fill="#CFDBEA" d="M1305 584q0 5-4 8l-3 3-4 3 7-9 2-3z"/><path fill="#B4C8E1" d="m1779 556 1 2-2 5-2 2-1 2-2-1q2-6 6-10"/><path fill="#375F92" d="M1710 125h7v2h7l1 2c-11-1-11-1-15-3z"/><path fill="#DEE1E3" d="M2162 1406h6l1 4h-6z"/><path fill="#EAF2F8" d="m2311 1384 3 1-9 11q0-5 3-8l2-2z"/><path fill="#E0E4E7" d="m2207 1248 2 2-7 6-2-2z"/><path fill="#C3C9D1" d="M456 1229h1l2 13-4-1z"/><path fill="#EEEEEE" d="m469 1002 3 1-3 7-4-2z"/><path fill="#20201F" d="M2086 1000h7v2l4 2-16-1v-1l5-1z"/><path fill="#305E99" d="m1030 636-2 3v-2l-6 7-2-1c5-9 5-9 10-7"/><path fill="#C6D8ED" d="M1221 628h6v2l3 2-10 1v-2l2-1z"/><path fill="#EFF7FB" d="m1504 607 2 1-9 11q1-6 4-10z"/><path fill="#B6C8E2" d="m1733 596 8 1-7 4h-2l-2 1z"/><path fill="#F3F9FD" d="m1733 594 1 2-4 6-4-1z"/><path fill="#ECF4FA" d="m925 529 3 1-10 11q0-5 4-8l1-2z"/><path fill="#365E8F" d="M1143 347q5 0 7 4l-3-1-11 1q2-4 7-4"/><path fill="#366298" d="m871 277 1 2-7 8-3-1z"/><path fill="#DEEBF4" d="m1023 182 2 1-11 11-2-1z"/><path fill="#C8C9C9" d="m2466 1216 3 8v4l-4-7v-2l-1-2z"/><path fill="#777777" d="M276 1065h2l-1 7h-4q1-6 3-7"/><path fill="#C3C4C3" d="M299 970h1v5l-4 3-3-1 3-5h3z"/><path fill="#EAF1F8" d="m1202 603 2 1-3 4-1 3q-2 3-6 3l5-8 2-2z"/><path fill="#EAF1F7" d="M1054 513q0 5-4 9l-4 1z"/><path fill="#2D588F" d="M1943 384h2q-1 5-6 8l-2 2-2 2-2-1 2-2 2-2 2-2z"/><path fill="#3C659A" d="M1972 337h1q1 7-2 14h-2z"/><path fill="#2C568A" d="M1267 299q3 0 5 2h-8l-1 6-2-3q2-6 6-5"/><path fill="#436897" d="m989 256 2 1v5l-2 2-5-1 1-2h4z"/><path fill="#F0FBFE" d="M1716 119h9l1 3h-7z"/><path fill="#2E5584" d="m199 1385 2 4q-6 4-13 3v-1h5v-2h6z"/><path fill="#F9FBFD" d="m2063 1313 1 2-5 7-3-1 3-3 2-2z"/><path fill="#C7CED7" d="m2449 1199 3 3-4 5v-3l-2-1z"/><path fill="#131313" d="m2342 1016 2 1-2 2-6 8-3-1z"/><path fill="#A6A6A8" d="M469 973h6l-5 6-1-2h-2z"/><path fill="#305990" d="m958 650 4 1 1 2-9 2v-2l3-1z"/><path fill="#C3D4E9" d="m869 481 1 3 2 1-2 10h-1l-1-6v-3z"/><path fill="#ABB0B4" d="m2169 1407 5 1-1 4-7-1 3-1z"/><path fill="#EAF2F8" d="M2108 1279h2q-1 5-6 8l-2 2-1 2q0-5 3-8l2-2z"/><path fill="#E5EDF4" d="m436 1258 2 1-8 9-2-2z"/><path fill="#CBCBCB" d="m2302 1181 1 2h2l-1 8-2-2-2 1z"/><path fill="#A9B4C2" d="M2051 1157h3l-1 5-6 2z"/><path fill="#BFBFBF" d="m296 1009 1 3q-2 4-6 5l-2 2q0-3 2-5l2-2 1-2z"/><path fill="#4C4D4C" d="M2383 998v1l-5 1-3 1-6-2q7-3 14-1"/><path fill="#A6A6A6" d="m335 965 2 1q-3 6-10 8 3-5 8-9"/><path fill="#E0E0DF" d="m337 947 8 2v2l-5 1-3-3z"/><path fill="#D2E1EF" d="m2556 927 2 1-3 1q-5 3-7 8v-6c5-4 5-4 8-4"/><path fill="#3B6190" d="M2526 886h4l-9 3h-4v-2z"/><path fill="#406697" d="m1145 632 12 1v2l2 1-14-3z"/><path fill="#EAF1F7" d="m933 532 1 2q-2 5-8 7z"/><path fill="#356096" d="M1968 351h1q1 7-3 13h-2l1-5 1-3z"/><path fill="#315A92" d="M1418 81v3l-7 1-2-2z"/><path fill="#113A70" d="m613 1384-3 3-2 1-1 7h-1v-10z"/><path fill="#5B5F63" d="M2332 1361h1l1 9-4-1v-4h2z"/><path fill="#727373" d="m2351 1323 11 2q-4 3-10 1z"/><path fill="#FAFCFD" d="m2073 1316 1 2-2 5h-6z"/><path fill="#D8D8D8" d="M609 1078v2l1 2 2 1-11 3 8-5z"/><path fill="#E3E3E3" d="M465 1071q1 5-1 9h-3q1-5 4-9"/><path fill="#355B8C" d="M611 996v9l-1 2-1 2-2-1z"/><path fill="#E8E9E8" d="M352 979h7l-2 4-4-1z"/><path fill="#F2F2F2" d="M393 935h2l-1 2-2 5-3 3h-2q2-6 6-10"/><path fill="#DBE9F6" d="M1705 605h12l-8 3h-5z"/><path fill="#D2DFEE" d="M1060 558v2l3 4h-2l-1 3-4-7z"/><path fill="#3A6397" d="M1469 397v2q-4 3-9 2h-4q6-3 13-4"/><path fill="#1F4C86" d="M877 279h2l-7 9h-2l1-3h2v-2h2v-2h2z"/><path fill="#2B558C" d="M1010 186q0 4-3 7l-2 2-1 1-2-1z"/><path fill="#3062A0" d="M1255 105h5l3 1h2l-2 2h-5l-3-1h-2z"/><path fill="#CEE6F5" d="m1545 95 9 7-11-5z"/><path fill="#25528B" d="m1492 80 6 1v2l-7 1-1-2h2z"/><path fill="#E4E7E9" d="M2169 1304h3l1 3-3 4h-2z"/><path fill="#E3E8EB" d="m2320 1222 3 1-4 7v-6z"/><path fill="#D3D8DB" d="M453 1216h1l1 8-4 1v-5l-2-1h3z"/><path fill="#CECECE" d="M2034 1123h2l3 5 2 2 1 2q-5-2-8-6z"/><path fill="#E1E1E1" d="M293 1014h2l-1 8-4-3z"/><path fill="#A0A0A1" d="M372 936q0 5-5 9l-1-4z"/><path fill="#386195" d="M1443 717h2l-1 8-2 1v-7z"/><path fill="#4C77B1" d="m999 640 5 1-7 6-2-1 1-2z"/><path fill="#A9BED8" d="M1738 605v3l-4 3v-2h-5z"/><path fill="#F3FAFD" d="M1956 305h2v6l-5 2z"/><path fill="#355D8E" d="m1559 276 2 2h-5l-6 1 1-3z"/><path fill="#447ABB" d="m1596 138 1 2-1 1h5q-4 4-7 3l-1-4z"/><path fill="#D4DFEA" d="m436 1265 2 2-8 8-2-1z"/><path fill="#B6B7B6" d="M469 1244h1l1 12-3 1z"/><path fill="#D6DBDF" d="m2147 1202 4 8-3 1v-2l-3-4z"/><path fill="#E7EFF5" d="m2343 1190 2 1q-3 7-6 7h-2q2-5 6-8"/><path fill="#E6E6E6" d="m2335 1171 1 3-4 4h-2q1-5 5-7"/><path fill="#E8EFF4" d="M2427 1162q-2 6-7 8 1-7 7-8"/><path fill="#808181" d="m296 969 2 1-4 3-3 1-2 1-2-1 3-3 2-1z"/><path fill="#3B649D" d="m996 628 1 4-5 2-1-4z"/><path fill="#CED9E9" d="M1418 620q-1 4-5 6l-4-1 3-2 2-2z"/><path fill="#305991" d="M1022 615v3q-4 4-7 3 1-3 4-5z"/><path fill="#83A2CB" d="m1944 398 1 3 2 3-1 3-4-4q0-2 2-5"/><path fill="#214C84" d="m1578 134 5 8-1 4-2-4-1-2z"/><path fill="#2A2B2D" d="m2315 1409 4 1-1 4-5-2z"/><path fill="#ADB1B6" d="m2363 1328 12 1v1l-11 1z"/><path fill="#959CA2" d="M2169 1268q3 6 3 11l-3-2v-9"/><path fill="#C2C3C4" d="m457 1191 2 3-4 6-1-6z"/><path fill="#E1E6EA" d="m2335 1187 1 3-4 6-1-3z"/><path fill="#191919" d="M2457 1091v8l-1 2v2l-2-3 1-5 1-2z"/><path fill="#030303" d="M2456 1090v6l-4 3c2-7 2-7 4-9"/><path fill="#8F9191" d="m479 1005 5 1-2 3h-6z"/><path fill="#A1A2A3" d="m461 971 2 1-3 3-1 2-5 1 3-4 2-1z"/><path fill="#838484" d="M428 932v2l-6 2-3-1q4-3 9-3"/><path fill="#395F91" d="m884 854 1 3-3 4-2 2-1 1-2-1z"/><path fill="#EBF2F9" d="m1678 582 3 1-7 8q1-5 4-9"/><path fill="#27528D" d="m1584 570 1 4-4 6h-2z"/><path fill="#3E679B" d="m1812 567 9 1v2l-9-1z"/><path fill="#EDF5FA" d="m1749 560-2 6-3 2q-1-3 3-6z"/><path fill="#D9E2EC" d="m885 478-2 5-5-2q3-4 7-3"/><path fill="#C2D4E8" d="m1937 388 3 1-5 5h-2l1-4z"/><path fill="#2A5790" d="m1157 357 1 3-4 5-4-2 2-1z"/><path fill="#2A5E9E" d="M1181 111v3l-4 3-4-1z"/><path fill="#2E578C" d="M1528 83q5 0 8 2l-1 3-7-4z"/><path fill="#D9E7F2" d="m374 1431 2 1-7 7-2-1z"/><path fill="#D3E5F3" d="M610 1414h2l1 5-3 3z"/><path fill="#E2EBF3" d="M2176 1357h2q-3 5-8 9z"/><path fill="#E7EFF6" d="m2351 1193 3 1-6 8-1-2 2-4z"/><path fill="#C0CCD8" d="m2342 1179 1 7h-2l-1-2-3-1z"/><path fill="#D0D5DA" d="m2425 1157 3 3-1 3-4-1v-3h2z"/><path fill="#466A98" d="M774 899h7v2l2 1-9-1z"/><path fill="#2A5182" d="M2545 894h7v1h-3l-8 4q1-6 4-5"/><path fill="#204F8D" d="M1026 637h2l-1 6-2 1-1-5z"/><path fill="#DAE9F6" d="M1450 636q6 0 11 3l-10-1z"/><path fill="#FAFDFE" d="M1211 630h5v3h-7z"/><path fill="#D9E6F2" d="m1555 600 4 2-6 4v-3l-2-1h4z"/><path fill="#E6EFF7" d="M1177 602h2l-6 10-1-2 2-4 2-2z"/><path fill="#2F5891" d="m1312 585 3 1-5 5-3-1z"/><path fill="#3F689C" d="m1965 484 2 6-4 5z"/><path fill="#E8F1F9" d="M881 459h2l-6 10-1-3 2-4 2-2z"/><path fill="#ACC3E2" d="M874 447h1v6l-4 4z"/><path fill="#315C90" d="M1309 376h3v1l-3 1-7 3q1-6 7-5"/><path fill="#28538B" d="m1521 354-6 3-2 1h-2l1-3z"/><path fill="#A1C4E6" d="m854 352 4 8-1 3c-4-6-4-6-4-9z"/><path fill="#2D598F" d="m1236 333 5 1v1l-9 2z"/><path fill="#325B8F" d="m997 186 1 2-2 4-2 2-1 2-1-3 2-4 2-2z"/><path fill="#396CAC" d="m1141 150-1 8-3-2z"/><path fill="#F7FDFF" d="M1734 123h7v3l-7-1z"/><path fill="#305F9B" d="M1659 121q5 0 10 2v1l-11-1z"/><path fill="#35649F" d="m1360 111 2 1-5 6-3-1z"/><path fill="#426692" d="M423 1433h4v1h-7l-2 4-2-3q4-2 7-2"/><path fill="#365A88" d="M633 1407h2v5l-4 4z"/><path fill="#27282A" d="M2326 1407h3l-1 4h-5z"/><path fill="#1C4376" d="m640 1372 7 1-2 2h-3l-2 2-1-4z"/><path fill="#484849" d="M2368 1326v1l-9 1-1-2z"/><path fill="#E0E9F2" d="m439 1283 2 2-6 7-2-1z"/><path fill="#ECF4F9" d="m2093 1261 1 4-4 5-2-1z"/><path fill="#CBD3DB" d="m2191 1264 2 3-5 3zm2 0 2 1-2 1z"/><path fill="#ABAFB4" d="M2006 1251h1q2 7-1 14h-1z"/><path fill="#CACED2" d="m2317 1228 2 1v6h-3z"/><path fill="#A1A2A2" d="M281 1064h3q-1 4-5 6z"/><path fill="#777777" d="M286 1050q2 6 0 12h-1l-1-4v-3z"/><path fill="#E6E6E6" d="m300 1001 1 2-3 6-3-1z"/><path fill="#FCFCFC" d="M325 958h6l-5 5z"/><path fill="#89898A" d="m345 949 3 2-7 4v-3l4-1z"/><path fill="#B7D4EC" d="M663 929q0 5-5 9l-2-2z"/><path fill="#DDEDF8" d="m2640 922-6 1-1 3-2-4z"/><path fill="#3C6698" d="m1442 707 2 6-1 2-1-2-2 1z"/><path fill="#C9DFF1" d="m1442 702 4 6h-2l-1 3z"/><path fill="#3A6195" d="m964 671 3 1-5 5h-2z"/><path fill="#3E669B" d="m997 642 2 1-1 2-3 4h-2l-1-3z"/><path fill="#2C5790" d="M1635 605h2l3 1 5 1-4 2-6-3z"/><path fill="#E3F0FA" d="M1608 579h7l-1 4q-6-2-6-4"/><path fill="#CCD8E7" d="m1594 549 3 1-4 8-2-2 2-2z"/><path fill="#DAE6F5" d="m1018 537-2 8h-3z"/><path fill="#CCDBEF" d="m872 503 2 5 4-1-4 5z"/><path fill="#C9D9EC" d="M1957 464v8l-1-2-4-3q3-4 5-3"/><path fill="#D7E9F8" d="m896 421 2 1-7 6v-3z"/><path fill="#315A90" d="m886 276-7 5v-4q4-3 7-1"/><path fill="#3B6292" d="M1280 111c6 0 6 0 8 2l1 1-8-1z"/><path fill="#E5F6FD" d="m1286 105 9 1-1 2-7-1z"/><path fill="#335E97" d="M1424 79v4h-4v-2l-2-1z"/><path fill="#2E5791" d="M1454 72v2l-6 1-3-2z"/></svg>